<?xml version="1.0" encoding="iso-8859-1"?>
<!-- Generator: Adobe Illustrator 19.0.0, SVG Export Plug-In . SVG Version: 6.00 Build 0)  -->
<svg version="1.1" id="Capa_1" xmlns="http://www.w3.org/2000/svg" xmlns:xlink="http://www.w3.org/1999/xlink" x="0px" y="0px"
	 viewBox="0 0 512 512" style="enable-background:new 0 0 512 512;" xml:space="preserve">
<g>
	<g>
		<path d="M407,0H105C47.103,0,0,47.103,0,105v302c0,57.897,47.103,105,105,105h302c57.897,0,105-47.103,105-105V105
			C512,47.103,464.897,0,407,0z M163.393,193.211c9.844-12.975,23.53-13.038,23.53-13.038s2.035,12.199-7.744,23.95
			c-10.442,12.548-22.312,10.494-22.312,10.494S154.639,204.749,163.393,193.211z M184.974,329.78
			c-8.754,0-15.559-5.899-24.783-5.899c-9.399,0-18.727,6.119-24.801,6.119C117.987,330,96,292.326,96,262.043
			c0-29.795,18.611-45.425,36.066-45.425c11.348,0,20.154,6.544,26.053,6.544c5.065,0,14.464-6.961,26.698-6.961
			c21.06,0,29.344,14.985,29.344,14.985s-16.204,8.284-16.204,28.386c0,22.677,20.185,30.492,20.185,30.492
			S204.033,329.78,184.974,329.78z M296.2,327.4c-5.2,1.6-10.668,2.4-16.4,2.4c-17.8,0-27.2-9.8-27.2-25.8v-60.2h-13.8v-20.6h13.8
			v-34h26.8v34h22v20.6h-22V295c0,7.25,4.1,10.2,10,10.2c5.6,0,13-3.131,14.6-3.8l5.4,21.2C305.8,324.2,301.4,325.8,296.2,327.4z
			 M380.598,328h-29l-38.6-104.8h27.6l26.6,83l26.8-83h25.2L380.598,328z"/>
	</g>
</g>
<g>
</g>
<g>
</g>
<g>
</g>
<g>
</g>
<g>
</g>
<g>
</g>
<g>
</g>
<g>
</g>
<g>
</g>
<g>
</g>
<g>
</g>
<g>
</g>
<g>
</g>
<g>
</g>
<g>
</g>
</svg>
