<?xml version="1.0" encoding="iso-8859-1"?>
<!-- Generator: Adobe Illustrator 19.0.0, SVG Export Plug-In . SVG Version: 6.00 Build 0)  -->
<svg version="1.1" id="Capa_1" xmlns="http://www.w3.org/2000/svg" xmlns:xlink="http://www.w3.org/1999/xlink" x="0px" y="0px"
	 viewBox="0 0 512 512" style="enable-background:new 0 0 512 512;" xml:space="preserve">
<g>
	<g>
		<path d="M407,0H105C47.103,0,0,47.103,0,105v302c0,57.897,47.103,105,105,105h302c57.897,0,105-47.103,105-105V105
			C512,47.103,464.897,0,407,0z M482,407c0,41.355-33.645,75-75,75H105c-41.355,0-75-33.645-75-75V105c0-41.355,33.645-75,75-75h302
			c41.355,0,75,33.645,75,75V407z"/>
	</g>
</g>
<g>
	<g>
		<path d="M186.923,180.173c0,0-13.686,0.063-23.53,13.038c-8.754,11.538-6.525,21.406-6.525,21.406s11.869,2.054,22.311-10.494
			C188.958,192.372,186.923,180.173,186.923,180.173z"/>
	</g>
</g>
<g>
	<g>
		<path d="M197.958,259.573c0-20.102,16.204-28.386,16.204-28.386s-8.285-14.985-29.344-14.985c-12.234,0-21.633,6.961-26.698,6.961
			c-5.899,0-14.706-6.544-26.053-6.544c-17.456,0-36.066,15.63-36.066,45.425C96,292.326,117.987,330,135.391,330
			c6.075,0,15.402-6.119,24.801-6.119c9.223,0,16.029,5.899,24.783,5.899c19.059,0,33.169-39.715,33.169-39.715
			S197.958,282.25,197.958,259.573z"/>
	</g>
</g>
<g>
	<g>
		<path d="M304,301.4c-1.6,0.669-9,3.8-14.6,3.8c-5.9,0-10-2.95-10-10.2v-51.2h22v-20.6h-22v-34h-26.8v34h-13.8v20.6h13.8V304
			c0,16,9.399,25.8,27.2,25.8c5.731,0,11.2-0.8,16.4-2.4c5.2-1.6,9.6-3.2,13.2-4.8L304,301.4z"/>
	</g>
</g>
<g>
	<g>
		<polygon points="393.998,223.2 367.198,306.2 340.598,223.2 312.998,223.2 351.598,328 380.598,328 419.198,223.2 		"/>
	</g>
</g>
<g>
</g>
<g>
</g>
<g>
</g>
<g>
</g>
<g>
</g>
<g>
</g>
<g>
</g>
<g>
</g>
<g>
</g>
<g>
</g>
<g>
</g>
<g>
</g>
<g>
</g>
<g>
</g>
<g>
</g>
</svg>
