<svg width="24" height="24" viewBox="0 0 24 24" xmlns="http://www.w3.org/2000/svg">
<style>path{fill:#000}@media (prefers-color-scheme:dark){path{fill:#fff}}</style>
<path d="m21.975 20.356-0.01255-0.02535c-0.01873-0.08873-0.05-0.17746-0.08746-0.25351v-0.01902l-8.9596-17.492c-0.37488-0.75419-1.437-0.75419-1.8119 0l-8.9721 17.499v0.01268a1.3246 1.3436 0 0 0-0.093721 0.2852c-0.024955 0.09506-0.037455 0.19013-0.037455 0.29154 0.00627 0.53871 0.3249 1.0267 0.81849 1.2422h0.00627a1.3183 1.3373 0 0 0 0.83098 0.06338l0.087474-0.02535c0.093721-0.03169 0.18744-0.06972 0.26242-0.12042l7.9974-4.8294 7.9849 4.8294a1.2996 1.3183 0 0 0 0.3499 0.14577 1.3121 1.3309 0 0 0 0.83097-0.06338h0.0064a1.3371 1.3563 0 0 0 0.82473-1.2612c0-0.09507-0.0064-0.19013-0.025-0.2852zm-17.876-0.54505 7.9037-15.42 4.1674 8.1314zm9.5157-3.8027 3.3177-2.0091 2.9678 5.7801 0.01873 0.03169z"/>
</svg>
