<svg width="24" height="24" xmlns="http://www.w3.org/2000/svg">
<style>@media (prefers-color-scheme:dark){path{fill:#fff}}</style>
<path d="m21.975 20.356-.013-.025a1.101 1.101 0 0 0-.087-.254v-.019l-8.96-17.492a1.008 1.008 0 0 0-1.812 0l-8.972 17.5v.012a1.325 1.344 0 0 0-.093.285c-.025.095-.038.19-.038.292.006.538.325 1.026.819 1.242h.006a1.318 1.337 0 0 0 .831.063l.087-.025c.094-.032.188-.07.263-.12l7.997-4.83 7.985 4.83a1.3 1.318 0 0 0 .35.145 1.312 1.33 0 0 0 .831-.063h.006A1.337 1.356 0 0 0 22 20.636c0-.096-.006-.19-.025-.286zm-17.876-.545 7.904-15.42 4.167 8.131zm9.516-3.803L16.932 14l2.968 5.78.019.032z"/>
</svg>
