<?xml version="1.0" encoding="UTF-8"?>
<!DOCTYPE svg PUBLIC "-//W3C//DTD SVG 1.1//EN" "http://www.w3.org/Graphics/SVG/1.1/DTD/svg11.dtd">
<svg xmlns="http://www.w3.org/2000/svg" xmlns:xlink="http://www.w3.org/1999/xlink" version="1.1"  width="24" height="24" viewBox="0 0 24 24">
<style>path{fill:#000}@media (prefers-color-scheme:dark){path{fill:#fff}}</style>
<path d="m6.5001 2.474-5.4999 9.526 5.4999 9.526h11l5.4998-9.526-5.4998-9.526zm1.5652 4.4317h1.1597v2.4643c1.6753 0.00201 3.3982 0 5.0944 0 0.89485 0 1.6153 0.72041 1.6153 1.6153v4.4731c0 0.89486-0.72043 1.6153-1.6153 1.6153-2.0641-0.03809-6.254-1e-4 -6.254-1e-4v-10.168zm1.5739 3.6033c-0.22946 0-0.41418 0.18472-0.41418 0.41417v4.6388c0 0.22946 0.18472 0.41417 0.41418 0.41417h4.7216c0.22945 0 0.41418-0.18471 0.41418-0.41417v-4.6388c0-0.22945-0.18473-0.41417-0.41418-0.41417z"/>
</svg>