<?xml version="1.0" encoding="UTF-8"?>
<!DOCTYPE svg PUBLIC "-//W3C//DTD SVG 1.1//EN" "http://www.w3.org/Graphics/SVG/1.1/DTD/svg11.dtd">
<svg xmlns="http://www.w3.org/2000/svg" xmlns:xlink="http://www.w3.org/1999/xlink" version="1.1" width="24" height="24" viewBox="0 0 24 24">
<path d="m 8,4.9996296 v 1.9999997 h 2 1 v 5.2675787 c -0.618917,0.357331 -1.0001326,1.017757 -1,1.732422 v 1 h 4 v -1 c 1.33e-4,-0.714665 -0.381083,-1.375091 -1,-1.732422 V 6.9996293 h 1 2 V 4.9996296 H 14 10 Z M 6,13.99963 c -2.209139,0 -4,0.671573 -4,1.499999 0,0.828427 1.790861,1.5 4,1.5 2.209139,0 4,-0.671573 4,-1.5 C 10,14.671203 8.209139,13.99963 6,13.99963 Z m 12,0 c -2.209139,0 -4,0.671573 -4,1.499999 0,0.828427 1.790861,1.5 4,1.5 2.209139,0 4,-0.671573 4,-1.5 0,-0.828426 -1.790861,-1.499999 -4,-1.499999 z m -8,1.999999 v 1 c -1.326e-4,0.714663 0.381083,1.37509 1,1.732422 0.618802,0.357265 1.381198,0.357265 2,0 0.618917,-0.357331 1.000133,-1.017757 1,-1.732422 v -1 z"/>
</svg>
