<?xml version="1.0" encoding="UTF-8"?>
<!DOCTYPE svg PUBLIC "-//W3C//DTD SVG 1.1//EN" "http://www.w3.org/Graphics/SVG/1.1/DTD/svg11.dtd">
<svg xmlns="http://www.w3.org/2000/svg" xmlns:xlink="http://www.w3.org/1999/xlink" version="1.1" width="24" height="24" viewBox="0 0 24 24">
<path d="m 8,3.679875 v 2 h 2 1 v 5.267578 a 2,2 0 0 0 -1,1.732422 v 1 h 4 v -1 A 2,2 0 0 0 13,10.947453 V 5.679875 h 1 2 v -2 h -2 -4 z m -2,9 a 3.9999998,1.5 0 0 0 -4,1.5 3.9999998,1.5 0 0 0 4,1.5 3.9999998,1.5 0 0 0 4,-1.5 3.9999998,1.5 0 0 0 -4,-1.5 z m 12,0 a 3.9999998,1.5 0 0 0 -4,1.5 3.9999998,1.5 0 0 0 4,1.5 3.9999998,1.5 0 0 0 4,-1.5 3.9999998,1.5 0 0 0 -4,-1.5 z m -8,2 v 1 a 2,2 0 0 0 1,1.732422 2,2 0 0 0 2,0 2,2 0 0 0 1,-1.732422 v -1 z m -0.5371094,1.886719 -1.7324218,1 0.5,0.867187 1.7324218,-1 z m 5.0742184,0 -0.5,0.867187 1.732422,1 0.5,-0.867187 z M 11.5,18.3205 v 2 h 1 v -2 z"/>
</svg>
