<svg xmlns="http://www.w3.org/2000/svg" width="24" height="24">
<style>@media (prefers-color-scheme:dark){path{fill:#fff}}</style>
<path d="M7.6 4.826v1.748h3.526v2.962c-.914-.874-2.067-1.506-3.43-1.506-1.56 0-3.113 1.026-4.13 2.35a3.85 3.85 0 0 1 1.736.322c.65-.61 1.51-1.022 2.395-1.022 1.757 0 3.192 1.308 3.429 3 .286-.069.58-.104.874-.106.295.002.588.037.874.106.237-1.692 1.672-3 3.43-3 .884 0 1.747.413 2.397 1.025a3.85 3.85 0 0 1 1.55-.33c.062 0 .125.004.188.008-1.017-1.327-2.573-2.353-4.136-2.353-1.362 0-2.515.634-3.428 1.509V6.574H16.4V4.826zm-3.85 6.648a2.75 2.75 0 1 0 0 5.5 2.75 2.75 0 0 0 0-5.5zm16.5 0a2.75 2.75 0 1 0 0 5.5 2.75 2.75 0 0 0 0-5.5zm-8.25 2.2a2.75 2.75 0 1 0 0 5.5 2.75 2.75 0 0 0 0-5.5z"/>
</svg>
