<?xml version="1.0" encoding="UTF-8"?>
<!DOCTYPE svg PUBLIC "-//W3C//DTD SVG 1.1//EN" "http://www.w3.org/Graphics/SVG/1.1/DTD/svg11.dtd">
<svg xmlns="http://www.w3.org/2000/svg" xmlns:xlink="http://www.w3.org/1999/xlink" version="1.1"  width="24" height="24" viewBox="0 0 24 24">
<style>path{fill:#000}@media (prefers-color-scheme:dark){path{fill:#fff}}</style>
<path d="m2 5v1l2 2h16l2-2v-1zm9.5 5c-0.276 0-0.5 0.224-0.5 0.5v5c0 0.276 0.224 0.5 0.5 0.5s0.5-0.224 0.5-0.5v-5c0-0.276-0.224-0.5-0.5-0.5zm-3.4668 2e-3c-0.19462-0.01238-0.38822 0.08894-0.48047 0.27344l-2 4c-0.124 0.247-0.023344 0.54888 0.22266 0.67188 0.247 0.124 0.54888 0.02334 0.67188-0.22266l2-4c0.124-0.247 0.023344-0.54888-0.22266-0.67188-0.06175-0.031-0.12653-0.04666-0.19141-0.05078zm6.9336 0c-0.06487 0.0041-0.12966 0.01978-0.19141 0.05078-0.246 0.123-0.34666 0.42488-0.22266 0.67188l2 4c0.123 0.246 0.42488 0.34666 0.67188 0.22266 0.246-0.123 0.34666-0.42488 0.22266-0.67188l-2-4c-0.09225-0.1845-0.28584-0.28581-0.48047-0.27344z"/>
</svg>
