<svg xmlns="http://www.w3.org/2000/svg" width="24" height="24">
<style>@media (prefers-color-scheme:dark){path{fill:#fff}}</style>
<path d="M8 3.68v2h3v5.268a2 2 0 0 0-1 1.732v1h4v-1a2 2 0 0 0-1-1.732V5.68h3v-2h-6zm-2 9a4 1.5 0 0 0-4 1.5 4 1.5 0 0 0 4 1.5 4 1.5 0 0 0 4-1.5 4 1.5 0 0 0-4-1.5zm12 0a4 1.5 0 0 0-4 1.5 4 1.5 0 0 0 4 1.5 4 1.5 0 0 0 4-1.5 4 1.5 0 0 0-4-1.5zm-8 2v1a2 2 0 0 0 1 1.732 2 2 0 0 0 2 0 2 2 0 0 0 1-1.732v-1zm-.537 1.887-1.733 1 .5.867 1.733-1zm5.074 0-.5.867 1.732 1 .5-.867zM11.5 18.32v2h1v-2z"/>
</svg>
