<?xml version="1.0" encoding="UTF-8"?>
<!DOCTYPE svg PUBLIC "-//W3C//DTD SVG 1.1//EN" "http://www.w3.org/Graphics/SVG/1.1/DTD/svg11.dtd">
<svg xmlns="http://www.w3.org/2000/svg" xmlns:xlink="http://www.w3.org/1999/xlink" version="1.1"  width="24" height="24" viewBox="0 0 24 24">
    <path fill="#000000" d="M 11 2 L 11 7.6738281 A 3 3 0 0 0 10.5 7.9023438 A 3 3 0 0 0 9.0097656 10.326172 A 10 6.9999995 0 0 0 7 10.9375 A 10 6.9999995 0 0 0 2 17 L 12 17 L 22 17 A 10 6.9999995 0 0 0 17 10.9375 A 10 6.9999995 0 0 0 14.992188 10.328125 A 3 3 0 0 0 13.5 7.9023438 A 3 3 0 0 0 13 7.6757812 L 13 2 L 11 2 z M 9 19 A 3 2.9999998 0 0 0 10.5 21.597656 A 3 2.9999998 0 0 0 13.5 21.597656 A 3 2.9999998 0 0 0 15 19 L 12 19 L 9 19 z " />
</svg>