<svg xmlns="http://www.w3.org/2000/svg" width="24" height="24">
<path fill="currentColor" d="M9 2v1c0 .536.572 1.031 1.5 1.3.235.067.487.118.75.152l-.002 5.634c.246-.056.5-.084.752-.086a3.5 3.5 0 0 1 .75.084V4.452c.263-.034.515-.085.75-.153C14.428 4.031 15 3.536 15 3V2H9zm3 9a2.5 2.5 0 1 0 0 5 2.5 2.5 0 0 0 0-5zm-7.5 2a2.5 2.5 0 1 0 0 5 2.5 2.5 0 0 0 0-5zm15 0a2.5 2.5 0 1 0 0 5 2.5 2.5 0 0 0 0-5zm-8.295 3.904a3.152 3.152 0 0 1-3.117 2.727c-.804 0-1.589-.375-2.18-.932A3.5 3.5 0 0 1 4.5 19a3.521 3.521 0 0 1-.172-.008c.925 1.206 2.34 2.139 3.76 2.139 1.26 0 2.325-.592 3.162-1.408v1.527c0 .414.336.75.75.75.4 0 .728-.351.748-.75v-1.527c.837.817 1.904 1.408 3.164 1.408 1.42 0 2.831-.932 3.756-2.137a3.5 3.5 0 0 1-1.578-.293c-.59.556-1.374.93-2.178.93a3.152 3.152 0 0 1-3.117-2.727c-.26.063-.527.095-.795.096a3.5 3.5 0 0 1-.795-.096z"/>
</svg>
