<?xml version="1.0" encoding="UTF-8"?>
<!DOCTYPE svg PUBLIC "-//W3C//DTD SVG 1.1//EN" "http://www.w3.org/Graphics/SVG/1.1/DTD/svg11.dtd">
<svg xmlns="http://www.w3.org/2000/svg" xmlns:xlink="http://www.w3.org/1999/xlink" version="1.1" width="24" height="24" viewBox="0 0 24 24">
<style>path{fill:#000}@media (prefers-color-scheme:dark){path{fill:#fff}}</style>
<path d="M 0.40642609,8.3197758 H 4.7354852 c 0.2635988,2.78e-4 0.5770098,0.048628 0.8302305,0.1227555 0.1770164,0.052186 0.3771616,0.1375811 0.5337192,0.2348366 0.6733769,0.4189699 0.9476486,1.223404 0.948835,1.9848451 v 0.741277 1.09709 c 0,0.830527 0.0851,1.836885 -0.4839058,2.520343 -0.4394288,0.527493 -1.124665,0.767667 -1.7992284,0.770928 H 0.40642609 Z M 12.333599,12.785857 9.7465187,12.802963 C 9.2471944,12.797109 8.6354925,12.650555 8.2770114,12.286145 7.9671571,11.971546 7.794884,11.401059 7.7895476,10.964595 7.779453,10.089591 7.6946593,8.977675 8.5901263,8.4830949 8.7454986,8.3974029 8.8922712,8.3360255 9.0645444,8.292735 9.2635033,8.242921 9.541333,8.207341 9.7465187,8.207043 h 3.9139433 v 1.5122058 h -3.261619 c -0.176424,2.783e-4 -0.330314,0.00585 -0.4732311,0.1266113 -0.2665636,0.2259399 -0.2896914,0.8821189 -0.069085,1.1430489 0.1633771,0.193028 0.4545511,0.212598 0.6905741,0.212895 h 0.919184 c 0.89131,0 2.000854,-0.140249 2.548214,0.741277 0.09043,0.145883 0.152702,0.308372 0.195103,0.474417 0.09133,0.356703 0.103781,0.84476 0.10319,1.215695 l -0.02698,0.355813 c -0.0341,0.496953 -0.121866,0.990643 -0.511778,1.345566 -0.545283,0.496655 -1.320015,0.458464 -2.007325,0.457278 l -0.504069,10e-7 c -1.253303,0 -2.2267004,-0.01711 -3.4141574,-0.01711 l 0.030026,-1.506328 h 1.4825542 0.4486726 0.6519496 l 1.249252,-7e-6 c 0.440319,-0.0021 0.622078,-0.183838 0.622672,-0.622674 V 12.785856 Z M 15.23197,8.3197758 h 1.838367 l 0.218529,0.029355 0.162784,0.2671562 0.323197,0.5930219 0.324086,0.5930212 0.716667,1.3342999 0.567522,1.09709 h 0.0593 l 0.567523,-1.09709 1.04105,-1.9273211 0.3229,-0.5930219 0.162784,-0.2671562 0.218528,-0.029355 h 1.838367 v 7.4720752 h -1.956971 v -2.75755 -0.830231 l -0.02965,-0.504068 -0.376568,0.711625 -0.728823,1.304648 -0.33654,0.563667 -0.218529,0.02935 h -1.067439 l -0.218528,-0.02935 -0.353737,-0.593318 -1.117846,-1.986622 v 4.091849 H 15.23197 Z M 2.3633982,14.279646 h 1.571507 c 0.3018489,0 0.5977671,0.03172 0.8586959,-0.154779 0.2754591,-0.196884 0.3273482,-0.538166 0.3273482,-0.853359 V 10.780817 C 5.1176629,10.501208 5.0524542,10.189871 4.8217703,10.007812 4.6367475,9.8616327 4.428893,9.8322778 4.201766,9.831982 H 2.3633982 Z"/>
</svg>
