<?xml version="1.0" encoding="UTF-8" standalone="no"?>
<svg
   viewBox="0 0 24 24"
   version="1.1"
   id="svg1"
   sodipodi:docname="fan-mod-speed-2.svg"
   inkscape:version="1.3.2 (091e20e, 2023-11-25, custom)"
   xmlns:inkscape="http://www.inkscape.org/namespaces/inkscape"
   xmlns:sodipodi="http://sodipodi.sourceforge.net/DTD/sodipodi-0.dtd"
   xmlns="http://www.w3.org/2000/svg"
   xmlns:svg="http://www.w3.org/2000/svg">
  <defs
     id="defs1" />
  <sodipodi:namedview
     id="namedview1"
     pagecolor="#ffffff"
     bordercolor="#000000"
     borderopacity="0.25"
     inkscape:showpageshadow="2"
     inkscape:pageopacity="0.0"
     inkscape:pagecheckerboard="0"
     inkscape:deskcolor="#d1d1d1"
     inkscape:zoom="19.778909"
     inkscape:cx="12.513329"
     inkscape:cy="12.083579"
     inkscape:window-width="1920"
     inkscape:window-height="976"
     inkscape:window-x="-8"
     inkscape:window-y="-8"
     inkscape:window-maximized="1"
     inkscape:current-layer="svg1" />
  <path
     d="M12,11A1,1 0 0,0 11,12A1,1 0 0,0 12,13A1,1 0 0,0 13,12A1,1 0 0,0 12,11M12.5,2C17,2 17.11,5.57 14.75,6.75C13.76,7.24 13.32,8.29 13.13,9.22C13.61,9.42 14.03,9.73 14.35,10.13C18.05,8.13 22.03,8.92 22.03,12.5C22.03,17 18.46,17.1 17.28,14.73C16.78,13.74 15.72,13.3 14.79,13.11C14.59,13.59 14.28,14 13.88,14.34C15.87,18.03 15.08,22 11.5,22C7,22 6.91,18.42 9.27,17.24C10.25,16.75 10.69,15.71 10.89,14.79C10.4,14.59 9.97,14.27 9.65,13.87C5.96,15.85 2,15.07 2,11.5C2,7 5.56,6.89 6.74,9.26C7.24,10.25 8.29,10.68 9.22,10.87C9.41,10.39 9.73,9.97 10.14,9.65C8.15,5.96 8.94,2 12.5,2Z"
     id="path1" />
  <text
     xml:space="preserve"
     style="font-size:8px;fill:#000000"
     x="16.684439"
     y="23.004303"
     id="text1"><tspan
       sodipodi:role="line"
       id="tspan1"
       x="16.684439"
       y="23.004303"
       style="font-style:normal;font-variant:normal;font-weight:normal;font-stretch:normal;font-size:8px;font-family:Verdana;-inkscape-font-specification:Verdana">2</tspan></text>
</svg>
