<svg xmlns="http://www.w3.org/2000/svg" width="24" height="24">
<path fill="currentColor" d="m 21.336782,21.117584 q 0,0.886719 -0.585937,1.449219 -0.582031,0.558594 -1.429688,0.558594 -0.429687,0 -0.78125,-0.132813 -0.351562,-0.132812 -0.621093,-0.394531 -0.335938,-0.324219 -0.519532,-0.859375 -0.179687,-0.535156 -0.179687,-1.289063 0,-0.773437 0.164062,-1.371093 0.167969,-0.597657 0.53125,-1.0625 0.34375,-0.441407 0.886719,-0.6875 0.542969,-0.25 1.265625,-0.25 0.230469,0 0.386719,0.01953 0.15625,0.01953 0.316406,0.07031 v 0.746094 h -0.03906 q -0.109375,-0.05859 -0.332032,-0.109375 -0.21875,-0.05469 -0.449218,-0.05469 -0.839844,0 -1.339844,0.527343 -0.5,0.523438 -0.582031,1.417969 0.328125,-0.199219 0.644531,-0.300781 0.320312,-0.105469 0.738281,-0.105469 0.371094,0 0.652344,0.07031 0.285156,0.06641 0.582031,0.273437 0.34375,0.238281 0.515625,0.601563 0.175781,0.363281 0.175781,0.882812 z m -0.792968,0.03125 q 0,-0.363281 -0.109375,-0.601562 -0.105469,-0.238282 -0.351563,-0.414063 -0.179687,-0.125 -0.398437,-0.164062 -0.21875,-0.03906 -0.457032,-0.03906 -0.332031,0 -0.617187,0.07813 -0.285156,0.07813 -0.585938,0.242188 -0.0078,0.08594 -0.01172,0.167968 -0.0039,0.07813 -0.0039,0.199219 0,0.617188 0.125,0.976563 0.128907,0.355468 0.351563,0.5625 0.179687,0.171875 0.386719,0.253906 0.210937,0.07813 0.457031,0.07813 0.566406,0 0.890625,-0.34375 0.324219,-0.347656 0.324219,-0.996094 z M 12,11 a 1,1 0 0 0 -1,1 1,1 0 0 0 1,1 1,1 0 0 0 1,-1 1,1 0 0 0 -1,-1 m 0.5,-9 c 4.5,0 4.61,3.57 2.25,4.75 -0.99,0.49 -1.43,1.54 -1.62,2.47 0.48,0.2 0.9,0.51 1.22,0.91 3.7,-2 7.68,-1.21 7.68,2.37 0,4.5 -3.57,4.6 -4.75,2.23 -0.5,-0.99 -1.56,-1.43 -2.49,-1.62 -0.2,0.48 -0.51,0.89 -0.91,1.23 C 15.87,18.03 15.08,22 11.5,22 7,22 6.91,18.42 9.27,17.24 10.25,16.75 10.69,15.71 10.89,14.79 10.4,14.59 9.97,14.27 9.65,13.87 5.96,15.85 2,15.07 2,11.5 2,7 5.56,6.89 6.74,9.26 7.24,10.25 8.29,10.68 9.22,10.87 9.41,10.39 9.73,9.97 10.14,9.65 8.15,5.96 8.94,2 12.5,2 Z" />
</svg>
