<svg xmlns="http://www.w3.org/2000/svg" width="24" height="24">
<path fill="currentColor" d="m 21.20397,21.156647 q 0,0.40625 -0.148438,0.777343 -0.148437,0.371094 -0.40625,0.625 -0.28125,0.273438 -0.671875,0.421875 -0.386718,0.144532 -0.898437,0.144532 -0.476563,0 -0.917969,-0.101563 -0.441406,-0.09766 -0.746094,-0.238281 v -0.824219 h 0.05469 q 0.320312,0.203125 0.75,0.347656 0.429687,0.140625 0.84375,0.140625 0.277344,0 0.535156,-0.07813 0.261719,-0.07813 0.464844,-0.273437 0.171875,-0.167969 0.257812,-0.402344 0.08984,-0.234375 0.08984,-0.542969 0,-0.300781 -0.105469,-0.507812 -0.101562,-0.207031 -0.285156,-0.332031 -0.203125,-0.148438 -0.496094,-0.207032 -0.289062,-0.0625 -0.648437,-0.0625 -0.34375,0 -0.664063,0.04687 -0.316406,0.04687 -0.546875,0.09375 v -2.996093 h 3.5 v 0.683593 h -2.746093 v 1.546875 q 0.167968,-0.01563 0.34375,-0.02344 0.175781,-0.0078 0.304687,-0.0078 0.472656,0 0.828125,0.08203 0.355469,0.07813 0.652344,0.28125 0.3125,0.214843 0.484375,0.554687 0.171875,0.339844 0.171875,0.851563 z M 12,11 a 1,1 0 0 0 -1,1 1,1 0 0 0 1,1 1,1 0 0 0 1,-1 1,1 0 0 0 -1,-1 m 0.5,-9 c 4.5,0 4.61,3.57 2.25,4.75 -0.99,0.49 -1.43,1.54 -1.62,2.47 0.48,0.2 0.9,0.51 1.22,0.91 3.7,-2 7.68,-1.21 7.68,2.37 0,4.5 -3.57,4.6 -4.75,2.23 -0.5,-0.99 -1.56,-1.43 -2.49,-1.62 -0.2,0.48 -0.51,0.89 -0.91,1.23 C 15.87,18.03 15.08,22 11.5,22 7,22 6.91,18.42 9.27,17.24 10.25,16.75 10.69,15.71 10.89,14.79 10.4,14.59 9.97,14.27 9.65,13.87 5.96,15.85 2,15.07 2,11.5 2,7 5.56,6.89 6.74,9.26 7.24,10.25 8.29,10.68 9.22,10.87 9.41,10.39 9.73,9.97 10.14,9.65 8.15,5.96 8.94,2 12.5,2 Z" />
</svg>
