<svg xmlns="http://www.w3.org/2000/svg" width="24" height="24">
<path fill="currentColor" d="M13 19a6 6 0 0 1 1.3-3.7l-.4-1q.6-.4.9-1.2.8.2 1.4.6a6 6 0 0 1 5.7 0l.1-1.2c0-3.6-4-4.4-7.7-2.4q-.5-.6-1.2-.9.2-1.6 1.6-2.4C17.1 5.6 17 2 12.5 2c-3.6 0-4.4 4-2.4 7.7l-.9 1.2q-1.6-.3-2.5-1.6C5.6 6.9 2 7 2 11.5c0 3.6 4 4.4 7.6 2.4q.6.6 1.3.9-.3 1.6-1.6 2.4C6.9 18.4 7 22 11.5 22q1.2 0 2-.6-.5-1-.5-2.4m-1-6q-1 0-1-1c0-1 .4-1 1-1q.9 0 1 1c.1 1-.5 1-1 1m4 2v2h3v1h-1a2 2 0 0 0-2 2v3h5v-2h-3v-1h1a2 2 0 0 0 2-2v-1a2 2 0 0 0-2-2z"/>
</svg>