<svg xmlns="http://www.w3.org/2000/svg" width="24" height="24">
<path fill="currentColor" d="m 21.243032,19.74649 q 0,0.761719 -0.175781,1.382813 -0.171875,0.621094 -0.523437,1.058594 -0.355469,0.445312 -0.890625,0.6875 -0.535157,0.242187 -1.257813,0.242187 -0.203125,0 -0.382812,-0.02344 -0.179688,-0.01953 -0.320313,-0.06641 v -0.746093 h 0.03906 q 0.113281,0.05859 0.320312,0.113281 0.207031,0.05078 0.460938,0.05078 0.863281,0 1.351562,-0.515625 0.492188,-0.519531 0.570313,-1.429687 -0.363282,0.21875 -0.683594,0.3125 -0.320313,0.09375 -0.699219,0.09375 -0.359375,0 -0.652344,-0.07031 -0.289062,-0.07031 -0.582031,-0.273437 -0.34375,-0.238282 -0.519531,-0.605469 -0.171875,-0.367188 -0.171875,-0.878906 0,-0.890625 0.585937,-1.449219 0.585938,-0.558594 1.429688,-0.558594 0.421875,0 0.78125,0.132813 0.359375,0.128906 0.628906,0.390625 0.332031,0.324218 0.511719,0.835937 0.179687,0.507813 0.179687,1.316406 z M 20.45397,19.578522 q 0,-0.605469 -0.125,-0.972657 -0.125,-0.367187 -0.34375,-0.570312 -0.183594,-0.175781 -0.394531,-0.25 -0.210938,-0.07813 -0.457032,-0.07813 -0.5625,0 -0.890625,0.351562 -0.324218,0.351563 -0.324218,0.988282 0,0.371093 0.105468,0.605468 0.105469,0.234375 0.355469,0.410157 0.175781,0.121093 0.386719,0.164062 0.210937,0.03906 0.46875,0.03906 0.304687,0 0.617187,-0.08203 0.3125,-0.08203 0.585938,-0.238281 0.0039,-0.08203 0.0078,-0.160156 0.0078,-0.08203 0.0078,-0.207031 z M 12,11 a 1,1 0 0 0 -1,1 1,1 0 0 0 1,1 1,1 0 0 0 1,-1 1,1 0 0 0 -1,-1 m 0.5,-9 c 4.5,0 4.61,3.57 2.25,4.75 -0.99,0.49 -1.43,1.54 -1.62,2.47 0.48,0.2 0.9,0.51 1.22,0.91 3.7,-2 7.68,-1.21 7.68,2.37 0,4.5 -3.57,4.6 -4.75,2.23 -0.5,-0.99 -1.56,-1.43 -2.49,-1.62 -0.2,0.48 -0.51,0.89 -0.91,1.23 C 15.87,18.03 15.08,22 11.5,22 7,22 6.91,18.42 9.27,17.24 10.25,16.75 10.69,15.71 10.89,14.79 10.4,14.59 9.97,14.27 9.65,13.87 5.96,15.85 2,15.07 2,11.5 2,7 5.56,6.89 6.74,9.26 7.24,10.25 8.29,10.68 9.22,10.87 9.41,10.39 9.73,9.97 10.14,9.65 8.15,5.96 8.94,2 12.5,2 Z" />
</svg>
