<svg xmlns="http://www.w3.org/2000/svg" width="24" height="24">
<path fill="currentColor" d="M12.5 2c-3.6 0-4.4 4-2.4 7.7l-.9 1.2q-1.6-.3-2.5-1.6C5.6 6.9 2 7 2 11.5c0 3.6 4 4.3 7.6 2.4q.6.6 1.3.9-.3 1.7-1.6 2.4C6.9 18.4 7 22 11.5 22q1.2 0 2-.6-.5-1-.5-2.4a6 6 0 0 1 1.3-3.7l-.4-1q.6-.4.9-1.2.8.2 1.4.6a6 6 0 0 1 5.7 0l.1-1.2c0-3.6-4-4.4-7.7-2.4q-.4-.6-1.2-.9.2-1.7 1.6-2.4C17.1 5.6 17 2 12.5 2m-.5 9q.9.1 1 1-.1.9-1 1a1 1 0 0 1-1-1q0-.9 1-1m4 4v4.8h3.4v1.6H16V23h3.4q1.5-.1 1.6-1.6v-1.6q-.1-1.5-1.6-1.6h-1.8v-1.6H21V15z"/>
</svg>