<svg xmlns="http://www.w3.org/2000/svg" width="24" height="24">
<path fill="currentColor" d="m 21.293814,21.383209 q 0,0.753906 -0.589844,1.253906 -0.585938,0.5 -1.476563,0.5 -0.945312,0 -1.507812,-0.488281 -0.558594,-0.488281 -0.558594,-1.25 0,-0.484375 0.28125,-0.875 0.28125,-0.394531 0.792969,-0.625 v -0.02344 q -0.46875,-0.25 -0.695313,-0.546875 -0.222656,-0.296875 -0.222656,-0.742188 0,-0.65625 0.539063,-1.09375 0.539062,-0.4375 1.371093,-0.4375 0.871094,0 1.390625,0.417969 0.519532,0.417969 0.519532,1.0625 0,0.394531 -0.246094,0.777344 -0.246094,0.378906 -0.722656,0.59375 v 0.02344 q 0.546875,0.234375 0.835937,0.578125 0.289063,0.34375 0.289063,0.875 z m -0.925782,-2.839844 q 0,-0.417968 -0.324218,-0.664062 -0.320313,-0.25 -0.820313,-0.25 -0.492187,0 -0.808594,0.234375 -0.3125,0.234375 -0.3125,0.632812 0,0.28125 0.15625,0.488282 0.160157,0.203125 0.480469,0.363281 0.144531,0.07031 0.414063,0.183594 0.273437,0.113281 0.53125,0.1875 0.386718,-0.257813 0.535156,-0.535157 0.148437,-0.277343 0.148437,-0.640625 z m 0.121094,2.914063 q 0,-0.359375 -0.160156,-0.574219 -0.15625,-0.21875 -0.617188,-0.4375 -0.183593,-0.08594 -0.402343,-0.160156 -0.21875,-0.07422 -0.582032,-0.207031 -0.351562,0.191406 -0.566406,0.519531 -0.210937,0.328125 -0.210937,0.742187 0,0.527344 0.363281,0.871094 0.363281,0.34375 0.921875,0.34375 0.570312,0 0.910156,-0.292969 0.34375,-0.292968 0.34375,-0.804687 z M 12,11 a 1,1 0 0 0 -1,1 1,1 0 0 0 1,1 1,1 0 0 0 1,-1 1,1 0 0 0 -1,-1 m 0.5,-9 c 4.5,0 4.61,3.57 2.25,4.75 -0.99,0.49 -1.43,1.54 -1.62,2.47 0.48,0.2 0.9,0.51 1.22,0.91 3.7,-2 7.68,-1.21 7.68,2.37 0,4.5 -3.57,4.6 -4.75,2.23 -0.5,-0.99 -1.56,-1.43 -2.49,-1.62 -0.2,0.48 -0.51,0.89 -0.91,1.23 C 15.87,18.03 15.08,22 11.5,22 7,22 6.91,18.42 9.27,17.24 10.25,16.75 10.69,15.71 10.89,14.79 10.4,14.59 9.97,14.27 9.65,13.87 5.96,15.85 2,15.07 2,11.5 2,7 5.56,6.89 6.74,9.26 7.24,10.25 8.29,10.68 9.22,10.87 9.41,10.39 9.73,9.97 10.14,9.65 8.15,5.96 8.94,2 12.5,2 Z" />
</svg>
