<svg xmlns="http://www.w3.org/2000/svg" width="24" height="24">
<path fill="currentColor" d="m 21.250845,23.004303 h -3.9375 v -0.816406 q 0.410156,-0.351563 0.820312,-0.703125 0.414063,-0.351563 0.769532,-0.699219 0.75,-0.726563 1.027343,-1.152344 0.277344,-0.429687 0.277344,-0.925781 0,-0.453125 -0.300781,-0.707031 -0.296875,-0.257813 -0.832031,-0.257813 -0.355469,0 -0.769532,0.125 -0.414062,0.125 -0.808593,0.382813 h -0.03906 v -0.820313 q 0.277344,-0.136719 0.738281,-0.25 0.464844,-0.113281 0.898438,-0.113281 0.894531,0 1.402344,0.433594 0.507812,0.429687 0.507812,1.167968 0,0.332032 -0.08594,0.621094 -0.08203,0.285156 -0.246094,0.542969 -0.152344,0.242187 -0.359375,0.476562 -0.203125,0.234375 -0.496094,0.519532 -0.417969,0.410156 -0.863281,0.796875 -0.445313,0.382812 -0.832031,0.710937 h 3.128906 z M 12,11 a 1,1 0 0 0 -1,1 1,1 0 0 0 1,1 1,1 0 0 0 1,-1 1,1 0 0 0 -1,-1 m 0.5,-9 c 4.5,0 4.61,3.57 2.25,4.75 -0.99,0.49 -1.43,1.54 -1.62,2.47 0.48,0.2 0.9,0.51 1.22,0.91 3.7,-2 7.68,-1.21 7.68,2.37 0,4.5 -3.57,4.6 -4.75,2.23 -0.5,-0.99 -1.56,-1.43 -2.49,-1.62 -0.2,0.48 -0.51,0.89 -0.91,1.23 C 15.87,18.03 15.08,22 11.5,22 7,22 6.91,18.42 9.27,17.24 10.25,16.75 10.69,15.71 10.89,14.79 10.4,14.59 9.97,14.27 9.65,13.87 5.96,15.85 2,15.07 2,11.5 2,7 5.56,6.89 6.74,9.26 7.24,10.25 8.29,10.68 9.22,10.87 9.41,10.39 9.73,9.97 10.14,9.65 8.15,5.96 8.94,2 12.5,2 Z" />
</svg>
