<svg xmlns="http://www.w3.org/2000/svg" width="24" height="24">
<path fill="currentColor" d="m 20.739126,20.203522 q 0.1875,0.167968 0.308594,0.421875 0.121094,0.253906 0.121094,0.65625 0,0.398437 -0.144532,0.730468 -0.144531,0.332032 -0.40625,0.578125 -0.292968,0.273438 -0.691406,0.40625 -0.394531,0.128907 -0.867187,0.128907 -0.484375,0 -0.953125,-0.117188 -0.46875,-0.113281 -0.769532,-0.25 v -0.816406 h 0.05859 q 0.332031,0.21875 0.78125,0.363281 0.449219,0.144531 0.867188,0.144531 0.246093,0 0.523437,-0.08203 0.277344,-0.08203 0.449219,-0.242187 0.179687,-0.171875 0.265625,-0.378907 0.08984,-0.207031 0.08984,-0.523437 0,-0.3125 -0.101563,-0.515625 -0.09766,-0.207031 -0.273437,-0.324219 -0.175782,-0.121094 -0.425782,-0.164062 -0.25,-0.04687 -0.539062,-0.04687 H 18.680524 V 19.52384 h 0.273438 q 0.59375,0 0.945312,-0.246094 0.355469,-0.25 0.355469,-0.726562 0,-0.210938 -0.08984,-0.367188 -0.08984,-0.160156 -0.25,-0.261718 -0.167968,-0.101563 -0.359375,-0.140625 -0.191406,-0.03906 -0.433593,-0.03906 -0.371094,0 -0.789063,0.132813 -0.417969,0.132812 -0.789062,0.375 H 17.50475 V 17.43399 q 0.277344,-0.136718 0.738281,-0.25 0.464844,-0.117187 0.898438,-0.117187 0.425781,0 0.75,0.07813 0.324219,0.07813 0.585937,0.25 0.28125,0.1875 0.425782,0.453125 0.144531,0.265625 0.144531,0.621094 0,0.484375 -0.34375,0.847656 -0.339844,0.359375 -0.804688,0.453125 v 0.05469 q 0.1875,0.03125 0.429688,0.132813 0.242187,0.09766 0.410156,0.246094 z M 12,11 a 1,1 0 0 0 -1,1 1,1 0 0 0 1,1 1,1 0 0 0 1,-1 1,1 0 0 0 -1,-1 m 0.5,-9 c 4.5,0 4.61,3.57 2.25,4.75 -0.99,0.49 -1.43,1.54 -1.62,2.47 0.48,0.2 0.9,0.51 1.22,0.91 3.7,-2 7.68,-1.21 7.68,2.37 0,4.5 -3.57,4.6 -4.75,2.23 -0.5,-0.99 -1.56,-1.43 -2.49,-1.62 -0.2,0.48 -0.51,0.89 -0.91,1.23 C 15.87,18.03 15.08,22 11.5,22 7,22 6.91,18.42 9.27,17.24 10.25,16.75 10.69,15.71 10.89,14.79 10.4,14.59 9.97,14.27 9.65,13.87 5.96,15.85 2,15.07 2,11.5 2,7 5.56,6.89 6.74,9.26 7.24,10.25 8.29,10.68 9.22,10.87 9.41,10.39 9.73,9.97 10.14,9.65 8.15,5.96 8.94,2 12.5,2 Z" />
</svg>
