<?xml version="1.0" encoding="UTF-8"?>
<!DOCTYPE svg PUBLIC "-//W3C//DTD SVG 1.1//EN" "http://www.w3.org/Graphics/SVG/1.1/DTD/svg11.dtd">
<svg xmlns="http://www.w3.org/2000/svg" xmlns:xlink="http://www.w3.org/1999/xlink" version="1.1" width="24" height="24" viewBox="0 0 24 24">
<style>path{fill:#000}@media (prefers-color-scheme:dark){path{fill:#fff}}</style>
<path d="M 9.9291417,1.6892699 A 9.6878582,5.9207874 0 0 0 0.29178013,7.6100172 9.6878582,5.9207874 0 0 0 1.2162008,10.134122 c -0.31197604,0.391087 -0.65603197,1.333341 -0.78475537,1.80891 -0.116034,0.428857 -0.2300169,1.038274 -0.2336672,1.499259 -0.0062,0.794003 0.048555,1.603927 0.2350036,2.355637 0.49294743,1.988487 1.81465847,3.311096 3.04902867,4.216465 1.6893746,1.239997 3.6687954,1.823012 5.5460784,1.942944 l 0.4013985,0.05139 c 1.1971516,0.02034 2.3945166,-0.115078 3.5756156,-0.406337 1.452933,-0.35765 2.942676,-1.008181 4.232508,-2.063996 1.217588,-0.996923 2.396583,-2.44646 2.782619,-4.490094 0.11895,-0.629634 0.100745,-1.077763 0.100015,-1.713287 -2.16e-4,-0.23086 -0.01578,-0.453977 -0.04277,-0.672282 0.610747,-0.501426 1.789934,-1.315873 2.546278,-0.849492 1.148308,0.70826 0.24742,2.641031 0.07106,4.318712 -0.01293,0.550188 0.443361,0.02343 0.481591,-0.09457 0.507637,-1.571169 1.182247,-3.742934 -0.159937,-4.571413 -1.091632,-0.673896 -2.235668,-0.180926 -3.049919,0.579306 -0.05074,-0.215299 -0.112014,-0.427177 -0.18377,-0.637579 -0.150881,-0.443256 -0.480455,-1.252837 -0.791658,-1.6240236 a 9.6878582,5.9207874 0 0 0 0.67672,-2.1736611 9.6878582,5.9207874 0 0 0 -9.6879273,-5.9207471 9.6878582,5.9207874 0 0 0 -0.05056,0 z m -1.8412658,1.246026 h 3.9790181 c 0.134548,0 0.243021,0.1287284 0.243021,0.2887277 V 3.851276 c 0,0.1599972 -0.108473,0.2887256 -0.243021,0.2887256 H 8.0878759 c -0.1345488,0 -0.2428041,-0.1287284 -0.2428002,-0.2887256 V 3.2240236 c 0,-0.1599993 0.1082514,-0.2887277 0.2428002,-0.2887277 z M 5.9358682,3.5527486 c 0.07409,-0.00489 0.1487268,7.926e-4 0.2240893,0.021717 -0.05511,0.3090013 -0.3616401,0.6608422 -0.5145563,0.954653 -0.2948848,0.5663565 -0.4336371,1.0711942 -0.434368,1.7360674 0,0.1015523 0.00478,0.2525368 -0.026955,0.3454106 C 5.0844449,6.9022375 4.7643513,6.8778217 4.5541355,6.8187971 4.158888,6.7085656 3.5351945,6.3128312 3.203814,6.0294357 3.0636705,5.9096556 2.7326422,5.6354132 2.7899408,5.3971517 2.8392073,5.1910065 3.2972699,4.870395 3.4593107,4.7484432 4.0198836,4.3261709 4.6560039,4.0113823 5.2840949,3.7622708 5.4967724,3.6779677 5.713589,3.5674755 5.9358654,3.5527465 Z M 16.343286,4.3100582 c 0.548531,-7.925e-4 1.222256,0.7423582 1.567505,1.2062936 0.175545,0.2360918 0.389247,0.6104548 0.472458,0.9112107 0.04196,0.1523294 0.05619,0.3295332 -0.108036,0.3764034 C 18.097845,6.8547449 17.750069,6.6008947 17.584014,6.5041153 17.102272,6.2224563 16.597633,6.0030749 16.087789,5.8056099 L 14.189943,5.2215338 C 14.061844,5.1894211 13.625625,5.138718 13.58183,4.9855186 13.527087,4.7941294 13.940757,4.6950544 14.04404,4.660769 14.878645,4.4128987 15.515538,4.3100582 16.343286,4.3100582 Z M 10.21783,6.1843968 a 1.7365109,1.2966158 0 0 1 2.7e-4,0 1.7365109,1.2966158 0 0 1 2.68e-4,0 1.7365109,1.2966158 0 0 1 0.02473,0 1.7365109,1.2966158 0 0 1 1.73657,1.2966189 A 1.7365109,1.2966158 0 0 1 10.243094,8.7776369 1.7365109,1.2966158 0 0 1 8.5065182,7.4810157 1.7365109,1.2966158 0 0 1 10.217922,6.1843968 Z M 1.9011633,7.2791731 c 0.1817918,-0.018152 0.4933194,0.2955267 0.6450898,0.4211692 0.440184,0.3653851 0.9110347,0.6729754 1.3897491,0.960214 l 1.801172,0.9202175 C 5.8596862,9.6356561 6.2841431,9.76447 6.3078654,9.9238023 6.337534,10.122855 5.9162527,10.146171 5.8097903,10.161405 4.9532121,10.255686 4.310645,10.242273 3.4925026,10.0928 2.9502242,9.9946051 2.3791868,9.1385426 2.097184,8.6176455 1.9538295,8.3525899 1.7901886,7.9437671 1.7463503,7.631472 1.724322,7.4733315 1.7328478,7.2958413 1.9011633,7.2791731 Z M 15.860805,7.900861 c 0.02946,7.925e-4 0.05798,0.00311 0.08487,0.0061 0.404321,0.04354 1.068217,0.3319761 1.429624,0.5575869 0.152831,0.095339 0.512805,0.3118821 0.484039,0.5573212 -0.02458,0.2123072 -0.440374,0.6059462 -0.586506,0.7536025 -0.505513,0.5112014 -1.098439,0.9284614 -1.691134,1.2794014 -0.267593,0.158381 -0.537009,0.364266 -0.845343,0.331374 0.01829,-0.315125 0.280689,-0.714621 0.397612,-1.03094 0.225507,-0.6097681 0.303427,-1.1324131 0.226094,-1.7908978 -0.01192,-0.1005619 -0.03434,-0.249502 -0.01381,-0.3467371 0.05637,-0.2671596 0.308375,-0.3228367 0.514557,-0.3168044 z m 2.932084,2.167569 c -0.04936,0.50355 -0.06453,0.970954 -0.148129,1.660575 -0.02891,0.261765 -0.06014,0.517529 -0.0949,0.769231 -1.276753,1.988238 -4.68474,3.485625 -8.6151553,3.485642 -3.7784241,-1.7e-5 -7.0937855,-1.24971 -8.4832782,-3.083015 -0.088615,-0.452418 -0.1436011,-0.929659 -0.1603807,-1.439659 l -0.02851,-0.535335 0.049006,-0.67202 a 9.6878582,5.9207874 0 0 0 8.6681686,3.276914 9.6878582,5.9207874 0 0 0 8.8131806,-3.462333 z m -6.872343,0.28343 v 3.21e-4 c 0.294946,0.02953 0.36407,0.265573 0.228988,0.643409 -0.144523,0.404912 -0.535572,0.951509 -0.880092,1.117292 -0.855153,0.28831 -2.4920578,0.13576 -2.6643362,0.09616 -0.8171386,-0.09808 -1.6550172,-0.246801 -2.4451483,-0.518913 0.1555993,-0.04898 0.8865605,-0.188051 1.2044194,-0.22436 3.7417701,-0.51738 3.1920941,-0.995962 4.4158341,-1.113316 0.05142,-0.0044 0.0982,-0.0046 0.140335,-4.81e-4 z m 6.409242,3.391873 c -0.08261,0.368513 -0.18184,0.730968 -0.306062,1.090538 -0.541471,1.334758 -1.461624,2.275353 -2.391686,2.957989 -1.220873,0.895195 -2.603991,1.369607 -3.955855,1.557532 l -0.860489,0.089 -0.437929,0.03576 H 10.049429 9.8304644 l -0.547302,-0.03576 -0.912169,-0.09801 -0.5838339,-0.07761 C 5.9576799,18.882504 3.9271736,17.79929 2.6362448,15.795809 2.3305196,15.32145 2.070704,14.829322 1.8628498,14.306351 3.4815718,16.076507 6.8808234,16.70074 9.9347117,16.7245 13.054229,16.70638 16.869122,15.973857 18.329788,13.743733 Z"/>
</svg>
