<?xml version="1.0" encoding="UTF-8"?>
<!DOCTYPE svg PUBLIC "-//W3C//DTD SVG 1.1//EN" "http://www.w3.org/Graphics/SVG/1.1/DTD/svg11.dtd">
<svg xmlns="http://www.w3.org/2000/svg" xmlns:xlink="http://www.w3.org/1999/xlink" version="1.1"  width="24" height="24" viewBox="0 0 24 24">
    <path fill="#000000" d="M 3.0351562 3 L 2 6.8632812 L 19.386719 11.521484 L 20.421875 7.6582031 L 3.0351562 3 z M 4.4003906 4.4394531 A 1 1 0 0 1 4.6679688 4.4726562 A 1 1 0 0 1 5.375 5.6972656 A 1 1 0 0 1 4.1503906 6.4042969 A 1 1 0 0 1 3.4433594 5.1796875 A 1 1 0 0 1 4.4003906 4.4394531 z M 7.78125 5.3457031 A 1 1 0 0 1 8.0488281 5.3789062 A 1 1 0 0 1 8.7558594 6.6035156 A 1 1 0 0 1 7.53125 7.3105469 A 1 1 0 0 1 6.8242188 6.0859375 A 1 1 0 0 1 7.78125 5.3457031 z M 11.162109 6.25 A 1 1 0 0 1 11.429688 6.2851562 A 1 1 0 0 1 12.136719 7.5097656 A 1 1 0 0 1 10.912109 8.2167969 A 1 1 0 0 1 10.205078 6.9921875 A 1 1 0 0 1 11.162109 6.25 z M 14.542969 7.15625 A 1 1 0 0 1 14.810547 7.1914062 A 1 1 0 0 1 15.517578 8.4160156 A 1 1 0 0 1 14.292969 9.1230469 A 1 1 0 0 1 13.585938 7.8984375 A 1 1 0 0 1 14.542969 7.15625 z M 17.923828 8.0625 A 1 1 0 0 1 18.191406 8.0957031 A 1 1 0 0 1 18.898438 9.3203125 A 1 1 0 0 1 17.673828 10.027344 A 1 1 0 0 1 16.966797 8.8027344 A 1 1 0 0 1 17.923828 8.0625 z M 11.435547 10.390625 L 6.3222656 11.945312 L 12.527344 13.607422 L 17.638672 12.052734 L 11.435547 10.390625 z M 4.578125 12.478516 L 3.5429688 16.341797 L 20.929688 21 L 21.964844 17.136719 L 4.578125 12.478516 z M 5.9433594 13.916016 A 1.0000032 1 0 0 1 6.2109375 13.951172 A 1.0000032 1 0 0 1 6.9179688 15.175781 A 1.0000032 1 0 0 1 5.6933594 15.882812 A 1.0000032 1 0 0 1 4.9863281 14.658203 A 1.0000032 1 0 0 1 5.9433594 13.916016 z M 9.3242188 14.822266 A 1.0000032 1 0 0 1 9.5917969 14.855469 A 1.0000032 1 0 0 1 10.298828 16.082031 A 1.0000032 1 0 0 1 9.0742188 16.789062 A 1.0000032 1 0 0 1 8.3671875 15.5625 A 1.0000032 1 0 0 1 9.3242188 14.822266 z M 12.705078 15.728516 A 1.0000032 1 0 0 1 12.972656 15.761719 A 1.0000032 1 0 0 1 13.679688 16.986328 A 1.0000032 1 0 0 1 12.455078 17.693359 A 1.0000032 1 0 0 1 11.748047 16.46875 A 1.0000032 1 0 0 1 12.705078 15.728516 z M 16.085938 16.634766 A 1.0000032 1 0 0 1 16.353516 16.667969 A 1.0000032 1 0 0 1 17.060547 17.892578 A 1.0000032 1 0 0 1 15.835938 18.599609 A 1.0000032 1 0 0 1 15.128906 17.375 A 1.0000032 1 0 0 1 16.085938 16.634766 z M 19.466797 17.539062 A 1.0000032 1 0 0 1 19.734375 17.574219 A 1.0000032 1 0 0 1 20.441406 18.798828 A 1.0000032 1 0 0 1 19.216797 19.505859 A 1.0000032 1 0 0 1 18.509766 18.28125 A 1.0000032 1 0 0 1 19.466797 17.539062 z " />
</svg>