<?xml version="1.0" encoding="UTF-8"?>
<!DOCTYPE svg PUBLIC "-//W3C//DTD SVG 1.1//EN" "http://www.w3.org/Graphics/SVG/1.1/DTD/svg11.dtd">
<svg xmlns="http://www.w3.org/2000/svg" xmlns:xlink="http://www.w3.org/1999/xlink" version="1.1"  width="24" height="24" viewBox="0 0 24 24">
<path d="m2.1576 2-1.1576 4.3457 19.691 5.3066 1.1576-4.3477zm1.8102 1.5703a1.243 1.25 0 0 1 0.33407 0.042969 1.243 1.25 0 0 1 0.8779 1.5293 1.243 1.25 0 0 1 -1.5227 0.88477 1.243 1.25 0 0 1 -0.8779 -1.5312 1.243 1.25 0 0 1 1.1887 -0.92578zm3.7233 1.002a1.243 1.25 0 0 1 0.33213 0.042969 1.243 1.25 0 0 1 0.87984 1.5312 1.243 1.25 0 0 1 -1.5227 0.88281 1.243 1.25 0 0 1 -0.87984 -1.5293 1.243 1.25 0 0 1 1.1906 -0.92773zm3.7214 1.0039a1.243 1.25 0 0 1 0.33213 0.042969 1.243 1.25 0 0 1 0.87984 1.5293 1.243 1.25 0 0 1 -1.5227 0.88477 1.243 1.25 0 0 1 -0.8779 -1.5312 1.243 1.25 0 0 1 1.1887 -0.92578zm3.7214 1.002a1.243 1.25 0 0 1 0.33407 0.042969 1.243 1.25 0 0 1 0.8779 1.5312 1.243 1.25 0 0 1 -1.5208 0.88281 1.243 1.25 0 0 1 -0.87984 -1.5293 1.243 1.25 0 0 1 1.1887 -0.92773zm3.7233 1.0039a1.243 1.25 0 0 1 0.33213 0.042969 1.243 1.25 0 0 1 0.87984 1.5293 1.243 1.25 0 0 1 -1.5227 0.88477 1.243 1.25 0 0 1 -0.87984 -1.5312 1.243 1.25 0 0 1 1.1906 -0.92578zm-7.4602 2.5664-6.2405 1.6973 7.4447 2.0059 6.2424-1.6973zm-8.0876 2.1992-1.1576 4.3457 19.691 5.3066 1.1576-4.3457zm1.8102 1.5703a1.243 1.25 0 0 1 0.33407 0.04297 1.243 1.25 0 0 1 0.8779 1.5312 1.243 1.25 0 0 1 -1.5208 0.88281 1.243 1.25 0 0 1 -0.87984 -1.5312 1.243 1.25 0 0 1 1.1887 -0.92578zm3.7233 1.0039a1.243 1.25 0 0 1 0.33213 0.04102 1.243 1.25 0 0 1 0.87984 1.5312 1.243 1.25 0 0 1 -1.5227 0.88476 1.243 1.25 0 0 1 -0.87984 -1.5312 1.243 1.25 0 0 1 1.1906 -0.92578zm3.7214 1.002a1.243 1.25 0 0 1 0.33407 0.04297 1.243 1.25 0 0 1 0.8779 1.5312 1.243 1.25 0 0 1 -1.5227 0.88281 1.243 1.25 0 0 1 -0.8779 -1.5312 1.243 1.25 0 0 1 1.1887 -0.92578zm3.7233 1.002a1.243 1.25 0 0 1 0.33213 0.04297 1.243 1.25 0 0 1 0.87984 1.5312 1.243 1.25 0 0 1 -1.5227 0.88477 1.243 1.25 0 0 1 -0.87984 -1.5312 1.243 1.25 0 0 1 1.1906 -0.92774zm3.7214 1.0039a1.243 1.25 0 0 1 0.33213 0.04297 1.243 1.25 0 0 1 0.87984 1.5312 1.243 1.25 0 0 1 -1.5227 0.88281 1.243 1.25 0 0 1 -0.8779 -1.5312 1.243 1.25 0 0 1 1.1887 -0.92578z"/>
</svg>