<?xml version="1.0" encoding="UTF-8"?>
<!DOCTYPE svg PUBLIC "-//W3C//DTD SVG 1.1//EN" "http://www.w3.org/Graphics/SVG/1.1/DTD/svg11.dtd">
<svg xmlns="http://www.w3.org/2000/svg" xmlns:xlink="http://www.w3.org/1999/xlink" version="1.1"  width="24" height="24" viewBox="0 0 24 24">
<style>path{fill:#000}@media (prefers-color-scheme:dark){path{fill:#fff}}</style>
<path d="m2.1641 2l-1.1641 4.3457 19.801 5.3066 0.64844-2.4141c0.28677-1.0702-0.34382-2.1624-1.4141-2.4492l-17.871-4.7891zm1.9062 1.5723c0.082909 0.0049769 0.16665 0.018681 0.25 0.041016 0.66683 0.17868 1.0634 0.86442 0.88477 1.5312-0.17868 0.66683-0.86442 1.0615-1.5312 0.88281-0.66683-0.17868-1.0634-0.86442-0.88477-1.5312 0.15634-0.58348 0.70089-0.95867 1.2812-0.92383zm3.623 0.9707c0.082909 0.0049769 0.16665 0.018681 0.25 0.041016 0.66683 0.17868 1.0615 0.86442 0.88281 1.5312-0.17868 0.66683-0.86442 1.0615-1.5312 0.88281-0.66683-0.17868-1.0615-0.86442-0.88281-1.5312 0.15634-0.58348 0.70089-0.95867 1.2812-0.92383zm3.8633 1.0352c0.082909 0.0049769 0.16665 0.018681 0.25 0.041016 0.66683 0.17868 1.0634 0.86442 0.88476 1.5312-0.17868 0.66683-0.86442 1.0615-1.5312 0.88281-0.66683-0.17868-1.0634-0.86442-0.88476-1.5312 0.15634-0.58348 0.70089-0.95867 1.2812-0.92383zm3.623 0.9707c0.082908 0.0049769 0.16664 0.018681 0.25 0.041016 0.66683 0.17868 1.0615 0.86442 0.88281 1.5312-0.17868 0.66683-0.86442 1.0615-1.5312 0.88281-0.66683-0.17868-1.0615-0.86442-0.88281-1.5312 0.15634-0.58348 0.70089-0.95867 1.2812-0.92383zm3.6211 0.9707c0.082909 0.0049769 0.16665 0.018681 0.25 0.041016 0.66683 0.17868 1.0634 0.86442 0.88477 1.5312-0.17868 0.66683-0.86442 1.0615-1.5312 0.88281-0.66683-0.17868-1.0634-0.86442-0.88477-1.5312 0.15634-0.58348 0.70089-0.95867 1.2812-0.92383zm-7.3789 2.6191l-6.3613 1.709 7.5156 2.0137 6.3613-1.709-7.5156-2.0137zm-8.2246 2.209l-0.64648 2.4141c-0.28677 1.0702 0.34382 2.1624 1.4141 2.4492l17.871 4.7891 1.1641-4.3457-19.803-5.3066zm2.1484 1.6367c0.082909 0.004977 0.16665 0.018681 0.25 0.041016 0.66683 0.17868 1.0634 0.86442 0.88477 1.5312-0.17868 0.66683-0.86442 1.0615-1.5312 0.88281-0.66683-0.17868-1.0634-0.86442-0.88477-1.5312 0.15634-0.58348 0.70089-0.95867 1.2812-0.92383zm3.623 0.9707c0.082909 0.004977 0.16665 0.018681 0.25 0.041016 0.66683 0.17868 1.0615 0.86442 0.88281 1.5312-0.17868 0.66683-0.86442 1.0615-1.5312 0.88281-0.66683-0.17868-1.0615-0.86442-0.88281-1.5312 0.15634-0.58348 0.70089-0.95866 1.2812-0.92383zm3.6211 0.9707c0.082909 0.004977 0.16665 0.018681 0.25 0.041016 0.66683 0.17868 1.0634 0.86442 0.88476 1.5312-0.17868 0.66683-0.86442 1.0615-1.5312 0.88281-0.66683-0.17868-1.0634-0.86442-0.88476-1.5312 0.15634-0.58348 0.70089-0.95867 1.2812-0.92383zm3.8633 1.0352c0.082909 0.004976 0.16665 0.01868 0.25 0.041015 0.66683 0.17868 1.0634 0.86442 0.88477 1.5312-0.17868 0.66683-0.86442 1.0615-1.5312 0.88281-0.66683-0.17868-1.0615-0.86442-0.88281-1.5312 0.15634-0.58348 0.69894-0.95867 1.2793-0.92383zm3.623 0.9707c0.082909 0.004977 0.16665 0.01868 0.25 0.041015 0.66683 0.17868 1.0615 0.86442 0.88281 1.5312-0.17868 0.66683-0.86246 1.0615-1.5293 0.88281-0.66683-0.17868-1.0634-0.86442-0.88477-1.5312 0.15634-0.58348 0.70089-0.95867 1.2812-0.92383z"/>
</svg>
