<svg xmlns="http://www.w3.org/2000/svg" width="24" height="24">
<path fill="currentColor" d="M2.164 2 1 6.346l19.801 5.306.648-2.414a1.995 1.995 0 0 0-1.414-2.449l-17.87-4.79zM4.07 3.572a1.25 1.25 0 0 1 1.135 1.572A1.25 1.25 0 1 1 4.07 3.573zm3.623.971a1.25 1.25 0 1 1-.148 2.496 1.25 1.25 0 0 1 .148-2.496zm3.864 1.035a1.25 1.25 0 0 1 1.135 1.572 1.25 1.25 0 1 1-1.135-1.572zm3.623.97a1.25 1.25 0 1 1-.148 2.496 1.25 1.25 0 0 1 .148-2.495zm3.62.972a1.25 1.25 0 0 1 1.135 1.572 1.25 1.25 0 1 1-1.134-1.572zm-7.378 2.619L5.06 11.848l7.516 2.013 6.361-1.709-7.515-2.013zm-8.225 2.209-.646 2.414a1.995 1.995 0 0 0 1.414 2.449l17.87 4.79L23 17.653 3.197 12.348zm2.149 1.636a1.25 1.25 0 0 1 1.135 1.572 1.25 1.25 0 1 1-1.135-1.572zm3.623.971a1.25 1.25 0 1 1-.148 2.496 1.25 1.25 0 0 1 .148-2.496zm3.62.97a1.25 1.25 0 0 1 1.135 1.572 1.25 1.25 0 1 1-1.134-1.571zm3.864 1.036a1.25 1.25 0 0 1 1.135 1.572 1.25 1.25 0 1 1-1.135-1.572zm3.623.97a1.25 1.25 0 1 1-.148 2.496 1.25 1.25 0 0 1 .148-2.495z"/>
</svg>
