<?xml version="1.0" encoding="UTF-8"?>
<!DOCTYPE svg PUBLIC "-//W3C//DTD SVG 1.1//EN" "http://www.w3.org/Graphics/SVG/1.1/DTD/svg11.dtd">
<svg xmlns="http://www.w3.org/2000/svg" xmlns:xlink="http://www.w3.org/1999/xlink" version="1.1"  width="24" height="24" viewBox="0 0 24 24">
<style>path{fill:#000}@media (prefers-color-scheme:dark){path{fill:#fff}}</style>
<path d="m12 22a7 7 0 0 1-7-7c0-2.38 1.19-4.47 3-5.74v-2.26a1 1 0 0 1 1-1h6a1 1 0 0 1 1 1v2.26c1.81 1.27 3 3.36 3 5.74a7 7 0 0 1-7 7m-3-19a1 1 0 0 1 1-1h4a1 1 0 0 1 1 1v1h-6z"/>
</svg>
