<svg xmlns="http://www.w3.org/2000/svg" width="24" height="24">
<style>@media (prefers-color-scheme:dark){path{fill:#fff}}</style>
<path d="M2 5.847v.8c.758.383 1.51.786 2.297 1.104l-.518 1.932 2.319.62.508-1.896c1.177.275 2.545.5 4.195.57v1.975h2.398V8.978a22.431 22.431 0 0 0 4.196-.57l.507 1.896 2.319-.621-.518-1.932c.718-.275 1.562-.699 2.297-1.104v-.7s-.89.494-2.498 1.109C17.893 7.67 15.426 8.29 12 8.29c-3.425 0-5.893-.62-7.502-1.234C2.89 6.44 2 5.846 2 5.846zm18.533 4.594a.398.398 0 0 0-.105.013l-2.319.623a.4.4 0 0 0-.283.489l.234.873a2.801 2.801 0 0 0-.566 2.529 2.8 2.8 0 1 0 3.656-3.357l-.234-.874a.4.4 0 0 0-.383-.296zm-17.08.002a.4.4 0 0 0-.371.295l-.233.873a2.8 2.8 0 0 0 .227 5.337 2.8 2.8 0 0 0 2.863-4.51l.235-.872a.4.4 0 0 0-.283-.489l-2.319-.623a.399.399 0 0 0-.119-.011zm7.348 1.31a.4.4 0 0 0-.4.4v.905A2.798 2.798 0 0 0 12 18.153a2.798 2.798 0 0 0 1.6-5.096v-.904a.4.4 0 0 0-.4-.4z"/>
</svg>
