<?xml version="1.0" encoding="UTF-8"?>
<!DOCTYPE svg PUBLIC "-//W3C//DTD SVG 1.1//EN" "http://www.w3.org/Graphics/SVG/1.1/DTD/svg11.dtd">
<svg xmlns="http://www.w3.org/2000/svg" xmlns:xlink="http://www.w3.org/1999/xlink" version="1.1"  width="24" height="24" viewBox="0 0 24 24">
    <path fill="#000000" d="m 1.9999999,5.8465626 v 0.8 C 2.7578662,7.0304569 3.509178,7.4328657 4.2968753,7.7510937 L 3.7792968,9.6827347 6.0976561,10.303827 6.6054687,8.4073437 c 1.1775185,0.274942 2.545886,0.499024 4.1953123,0.570312 v 1.9746093 h 2.398438 V 8.9776557 c 1.649426,-0.07129 3.017794,-0.29537 4.195312,-0.570312 L 17.902344,10.303827 20.220703,9.6827347 19.703125,7.7510936 C 20.421108,7.475841 21.264842,7.0521575 22,6.6465626 v -0.7 c 0,0 -0.889349,0.4944689 -2.498047,1.109 -1.608698,0.614531 -4.07651,1.234 -7.501953,1.234 -3.4254429,0 -5.8932552,-0.619469 -7.5019532,-1.234 -1.608698,-0.6145311 -2.4980469,-1.209 -2.4980469,-1.209 z M 20.533203,10.440546 c -0.03561,-1.58e-4 -0.07108,0.0044 -0.105469,0.01367 l -2.318359,0.623047 c -0.212729,0.05704 -0.339326,0.275311 -0.283203,0.488283 l 0.234375,0.873047 c -0.56785,0.678076 -0.812802,1.609735 -0.566406,2.529297 0.399979,1.494136 1.935679,2.380924 3.429687,1.980468 1.494136,-0.399978 2.380925,-1.935679 1.980469,-3.429687 -0.246396,-0.91956 -0.923106,-1.604892 -1.753906,-1.908203 l -0.234375,-0.873047 c -0.04636,-0.173763 -0.20298,-0.295225 -0.382813,-0.296875 z m -17.0800781,0.002 c -0.1748985,0.0065 -0.3252388,0.126015 -0.3710938,0.294922 l -0.2324218,0.873047 c -0.83081,0.303306 -1.5075103,0.988641 -1.7539063,1.908203 -0.40045573,1.494008 0.4863327,3.029709 1.9804688,3.429687 1.4933753,0.399208 3.0277278,-0.487306 3.4277343,-1.980468 0.246395,-0.919561 0.00338,-1.851222 -0.5644531,-2.529297 L 6.173828,11.565546 C 6.22995,11.352575 6.1033525,11.134303 5.8906249,11.077265 L 3.5722655,10.454218 c -0.038901,-0.0099 -0.079064,-0.01381 -0.1191406,-0.01172 z m 7.3476561,1.3105 c -0.221219,-2.16e-4 -0.400606,0.179172 -0.40039,0.400391 v 0.904297 c -0.7240004,0.508 -1.2011723,1.342921 -1.2011723,2.294921 -4.321e-4,1.547008 1.2537733,2.801214 2.8007813,2.800782 1.547008,4.32e-4 2.801213,-1.253774 2.800781,-2.800782 0,-0.952 -0.477172,-1.786921 -1.201172,-2.294921 v -0.904297 c 2.16e-4,-0.221219 -0.179171,-0.400607 -0.40039,-0.400391 z" />
</svg>