<svg xmlns="http://www.w3.org/2000/svg" width="24" height="24">
<style>@media (prefers-color-scheme:dark){path{fill:#fff}}</style>
<path d="m12 1.2-1.236.712v6.21a6.998 6.998 0 0 1-3.225-1.493L5.11 8.03a9.683 9.683 0 0 0 13.782 0L16.46 6.63a6.999 6.999 0 0 1-3.225 1.492V1.912L12 1.2zm-8.527 9.667v2.807a7 7 0 0 1 2.906 2.045L1 18.824v1.426l1.236.715 5.377-3.106a7 7 0 0 1 .32 3.54l2.428 1.402a9.68 9.68 0 0 0-6.888-11.934zm17.055.002a9.676 9.676 0 0 0-6.889 11.932l2.428-1.403a7 7 0 0 1 .32-3.539l5.377 3.106L23 20.25v-1.426l-5.379-3.105a7 7 0 0 1 2.907-2.045v-2.805z"/>
</svg>
