<?xml version="1.0" encoding="UTF-8"?>
<!DOCTYPE svg PUBLIC "-//W3C//DTD SVG 1.1//EN" "http://www.w3.org/Graphics/SVG/1.1/DTD/svg11.dtd">
<svg xmlns="http://www.w3.org/2000/svg" xmlns:xlink="http://www.w3.org/1999/xlink" version="1.1"  width="24" height="24" viewBox="0 0 24 24">
<style>path{fill:#000}@media (prefers-color-scheme:dark){path{fill:#fff}}</style>
<path d="m12 1.1992-1.2363 0.71289v6.209c-1.1788-0.2114-2.2908-0.72055-3.2246-1.4922l-2.4297 1.4023c1.819 1.8427 4.3013 2.8788 6.8906 2.8789 2.5893 2.9e-5 5.0715-1.0362 6.8906-2.8789l-2.4297-1.4023c-0.93386 0.77163-2.0458 1.2808-3.2246 1.4922v-6.209l-1.2363-0.71289zm-8.5273 9.668v2.8066c1.1352 0.42293 2.1338 1.1298 2.9062 2.0449l-5.3789 3.1055v1.4258l1.2363 0.71484 5.377-3.1055c0.40632 1.1266 0.52164 2.3445 0.32031 3.5391l2.4277 1.4023c0.68636-2.4967 0.34344-5.1638-0.95117-7.4062-1.2946-2.2425-3.4321-3.8733-5.9375-4.5273zm17.055 0.001953c-2.5054 0.65394-4.6428 2.283-5.9375 4.5254-1.2947 2.2424-1.6375 4.9095-0.95117 7.4062l2.4277-1.4023c-0.20132-1.1946-0.086001-2.4125 0.32031-3.5391l5.377 3.1055 1.2363-0.71484v-1.4258l-5.3789-3.1055c0.77247-0.91516 1.7711-1.622 2.9062-2.0449v-2.8047z"/>
</svg>