<?xml version="1.0" encoding="UTF-8"?>
<!DOCTYPE svg PUBLIC "-//W3C//DTD SVG 1.1//EN" "http://www.w3.org/Graphics/SVG/1.1/DTD/svg11.dtd">
<svg xmlns="http://www.w3.org/2000/svg" xmlns:xlink="http://www.w3.org/1999/xlink" version="1.1" width="24" height="24" viewBox="0 0 24 24">
<style>path{fill:#000}@media (prefers-color-scheme:dark){path{fill:#fff}}</style>
<path d="m 3.1380593,22.523591 c 0,0 0,-1.169284 0,-1.169284 -0.00554,-0.796959 -0.3470926,-0.388325 -0.9846601,-0.936042 -0.5261778,-0.451713 -0.675723,-0.980353 -0.6769539,-1.64869 0,0 0,-12.0620879 0,-12.0620879 0,0 0,-2.4001091 0,-2.4001091 0,0 0,-0.8000364 0,-0.8000364 0.00431,-0.9181955 0.4381738,-1.6696143 1.3539077,-1.9422421 0.2953981,-0.088004 0.4375584,-0.088004 0.7384951,-0.08862 0,0 14.5852769,0 14.5852769,0 0,0 1.600073,0 1.600073,0 1.130512,0 2.228409,-0.02954 2.66166,1.2923665 0.103389,0.3138604 0.107081,0.4769448 0.107697,0.8000364 0,0 0,15.2006916 0,15.2006916 -0.0012,0.668338 -0.150777,1.196978 -0.676954,1.64869 -0.606797,0.520639 -0.971737,0.174162 -0.98466,0.874501 0,0 0,1.230825 0,1.230825 0,0 -2.769357,0 -2.769357,0 0,0 0,-1.661614 0,-1.661614 0,0 -12.1851679,0 -12.1851679,0 0,0 0,1.661614 0,1.661614 0,0 -2.7693568,0 -2.7693568,1e-6 z M 13.661615,3.138094 c 0,0 -10.5235557,0 -10.5235557,0 0,0 0,16.06227 0,16.06227 0,0 10.5235557,0 10.5235557,0 0,0 0,-16.06227 0,-16.06227 z m 7.200326,0 c 0,0 -6.092583,0 -6.092583,0 0,0 0,16.06227 0,16.06227 0,0 6.092583,0 6.092583,0 0,0 0,-16.06227 0,-16.06227 z M 17.41563,5.3886579 c 0.311399,-0.056618 1.278827,-0.092927 1.530531,0.078773 0.307707,0.2110866 0.307707,0.6689535 0,0.88004 -0.174777,0.1193901 -0.404941,0.1126206 -0.607412,0.1138514 -0.262166,0.00115 -0.8265,0.032617 -1.043124,-0.080619 -0.391403,-0.2061632 -0.425251,-0.771112 0.120005,-0.9920454 z m 0,2.7693567 c 0.311399,-0.056618 1.278827,-0.092927 1.530531,0.078773 0.307707,0.2110865 0.307707,0.6689534 0,0.88004 -0.174777,0.1193899 -0.404941,0.1126204 -0.607412,0.1138513 -0.262166,0.00115 -0.8265,0.032617 -1.043124,-0.080619 -0.391403,-0.2061633 -0.425251,-0.771112 0.120005,-0.9920453 z"/>
</svg>
