<svg xmlns="http://www.w3.org/2000/svg" width="24" height="24">
<path fill="currentColor" d="m12 1-1.695.978v.566C4.43 3.524.61 9.269 1.977 15.066l.928-.536c-1.02-5.075 2.31-10.004 7.4-10.95v.354l1.695.98 1.695-.978V1.978zm2.955 1.837v1.071c4.904 1.648 7.513 6.99 5.797 11.87l-.323-.187-1.695.978v1.957l1.695.978 1.695-.978V16.57l-.473-.273c2.078-5.579-.993-11.752-6.696-13.46zM12 6.079 6.264 9.39v6.623L12 19.325l5.736-3.311V9.39zm0 3.286 2.89 1.668v3.337L12 16.038 9.11 14.37v-3.337zm-8.412 6.226-1.695.978v1.957l1.695.978.457-.264c3.791 4.613 10.699 5.045 15.035.94l-.927-.535c-3.886 3.443-9.84 3.027-13.21-.923l.34-.196V16.57z"/>
</svg>
