<?xml version="1.0" encoding="UTF-8"?>
<!DOCTYPE svg PUBLIC "-//W3C//DTD SVG 1.1//EN" "http://www.w3.org/Graphics/SVG/1.1/DTD/svg11.dtd">
<svg xmlns="http://www.w3.org/2000/svg" xmlns:xlink="http://www.w3.org/1999/xlink" version="1.1"  width="24" height="24" viewBox="0 0 24 24">
<style>path{fill:#000}@media (prefers-color-scheme:dark){path{fill:#fff}}</style>
<path d="m12 1-1.695 0.978v0.566c-5.8748 0.98027-9.6955 6.7251-8.328 12.522l0.928-0.536c-1.0208-5.0754 2.3101-10.004 7.4-10.95v0.354l1.695 0.98 1.695-0.978v-1.958zm2.955 1.837v1.071c4.9041 1.648 7.5126 6.9891 5.797 11.87l-0.323-0.187-1.695 0.978v1.957l1.695 0.978 1.695-0.978v-1.956l-0.473-0.273c2.0781-5.5787-0.99301-11.752-6.696-13.46zm-2.955 3.242-5.736 3.311v6.623l5.736 3.312 5.736-3.311v-6.624zm0 3.286 2.89 1.668v3.337l-2.89 1.668-2.89-1.668v-3.337zm-8.412 6.226-1.695 0.978v1.957l1.695 0.978 0.457-0.264c3.7914 4.6129 10.699 5.0448 15.035 0.94l-0.927-0.535c-3.8859 3.4429-9.8407 3.0268-13.21-0.923l0.34-0.196v-1.956z"/>
</svg>
