<?xml version="1.0" encoding="UTF-8"?>
<!DOCTYPE svg PUBLIC "-//W3C//DTD SVG 1.1//EN" "http://www.w3.org/Graphics/SVG/1.1/DTD/svg11.dtd">
<svg xmlns="http://www.w3.org/2000/svg" xmlns:xlink="http://www.w3.org/1999/xlink" version="1.1"  width="24" height="24" viewBox="0 0 24 24">
<style>path{fill:#000}@media (prefers-color-scheme:dark){path{fill:#fff}}</style>
<path d="M12 1l-1.695.978v.566a10.298 10.298 0 0 0-8.328 12.522l.928-.536a9.277 9.277 0 0 1 7.4-10.95v.354L12 4.914l1.695-.978V1.978zm0 .828l.978.564v1.129L12 4.086l-.978-.564V2.392zm2.955 1.009v1.071a9.277 9.277 0 0 1 5.797 11.87l-.323-.187-1.695.978v1.957l1.695.978 1.695-.978V16.57l-.473-.273a10.298 10.298 0 0 0-6.696-13.46zM12 6.079L6.264 9.39v6.623L12 19.325l5.736-3.311V9.39zm0 3.286l2.89 1.668v3.337L12 16.038 9.11 14.37v-3.337zm-8.412 6.226l-1.695.978v1.957l1.695.978.457-.264a10.298 10.298 0 0 0 15.035.94l-.927-.535a9.277 9.277 0 0 1-13.21-.923l.34-.196V16.57zm0 .828l.978.564v1.129l-.978.564-.978-.564v-1.129zm16.841 0l.978.564v1.129l-.978.564-.978-.564v-1.129z"/>
</svg>
