<?xml version="1.0" encoding="UTF-8"?>
<!DOCTYPE svg PUBLIC "-//W3C//DTD SVG 1.1//EN" "http://www.w3.org/Graphics/SVG/1.1/DTD/svg11.dtd">
<svg xmlns="http://www.w3.org/2000/svg" xmlns:xlink="http://www.w3.org/1999/xlink" version="1.1" width="24" height="24" viewBox="0 0 24 24">
<style>path{fill:#000}@media (prefers-color-scheme:dark){path{fill:#fff}}</style>
<path d="M 11.93244,0.46227947 10.925728,1.0402164 c -0.114872,0.065902 -0.496231,0.2755767 -0.568998,0.3547511 -0.04279,0.04691 -0.06084,0.1030624 -0.06816,0.1631299 -0.0074,0.060067 -0.0038,0.1240729 -0.0034,0.1863142 4.57e-4,0.062241 -0.0024,0.1228271 -0.02179,0.1762582 -0.01945,0.053431 -0.05558,0.099603 -0.122627,0.1332411 L 9.6441307,2.1720682 8.6374193,2.4466516 C 8.2296476,2.5731932 7.8149003,2.7356025 7.4119913,2.9234703 7.0090823,3.1113382 6.6179178,3.3246629 6.2575136,3.5528048 5.9568285,3.7432471 5.6676232,3.9452773 5.3904634,4.1581161 5.1133347,4.3709545 4.8482254,4.5946938 4.5955168,4.8290707 4.3428081,5.0634483 4.1024457,5.3083759 3.8751206,5.5634339 3.647795,5.8184913 3.4333895,6.0835316 3.2323782,6.3584113 3.0313673,6.6332912 2.843849,6.917926 2.6700842,7.2117699 2.4963184,7.5056138 2.336339,7.8087651 2.1907502,8.120715 2.045162,8.4326651 1.9139316,8.7535353 1.7974516,9.0827333 1.6809717,9.4119312 1.57942,9.7494432 1.4929801,10.095031 c -0.1434752,0.574588 -0.2257144,1.082507 -0.2703932,1.593307 -0.044679,0.510802 -0.051837,1.024547 -0.044971,1.610348 0.00273,0.229286 0.041605,0.586027 0.094693,0.941627 0.053088,0.355599 0.1203945,0.709934 0.1798897,0.934644 0.080319,-0.02975 0.2796936,-0.128829 0.4692773,-0.236036 0.1895837,-0.107206 0.3691997,-0.222398 0.4106175,-0.284639 0.047138,-0.07093 0.041377,-0.131364 0.032681,-0.211454 L 2.2301361,13.161254 v -0.915369 c 3.204e-4,-0.220476 0.018357,-0.461981 0.050001,-0.713413 C 2.3117799,11.28104 2.3571999,11.019804 2.412261,10.760399 2.5223841,10.241588 2.6713877,9.7298982 2.827906,9.3170922 2.9392882,9.0234488 3.064673,8.7360905 3.2033278,8.4559129 3.3419822,8.1757354 3.4938421,7.9027015 3.6580798,7.6377505 3.8223175,7.3728001 3.9990021,7.1158754 4.187134,6.8679122 4.3752654,6.6199498 4.5748471,6.3809206 4.7851826,6.1517067 4.9955187,5.9224922 5.2166275,5.7031436 5.447478,5.4944388 5.6783289,5.2857338 5.9190359,5.0875722 6.1687125,4.9011386 6.4183891,4.7147044 6.677045,4.5400736 6.9438578,4.3776708 7.2106705,4.2152686 7.4856266,4.065116 7.7678865,3.9285059 8.2523152,3.6939571 8.6316503,3.5512483 9.0148225,3.4340885 9.3979951,3.3169287 9.7849544,3.2255156 10.284944,3.0930247 c 0,0.052859 -0.0038,0.1267023 0,0.1983255 0.0038,0.071623 0.01504,0.1409319 0.04525,0.1846382 0.05035,0.072309 0.239489,0.17244 0.320952,0.2209515 l 0.823748,0.4751432 c 0.08398,0.048053 0.195796,0.1227257 0.310896,0.1804477 0.115101,0.057722 0.233276,0.098501 0.329612,0.079051 0.129059,-0.026086 0.755648,-0.4042828 0.91537,-0.4958138 0.07048,-0.040502 0.23605,-0.1289187 0.39274,-0.2203926 0.15669,-0.091474 0.304478,-0.1859186 0.339946,-0.2385495 0.04806,-0.071394 0.04416,-0.1642713 0.04554,-0.2466493 V 1.6742995 c -0.0014,-0.083751 0.0021,-0.1773357 -0.04554,-0.2505608 -0.05858,-0.090158 -0.226395,-0.1720768 -0.320672,-0.2265381 L 12.75619,0.79775663 c -0.10046,-0.0576655 -0.249946,-0.16088614 -0.402518,-0.23994621 -0.07629,-0.0395294 -0.153289,-0.0727848 -0.22542,-0.0916205 -0.07213,-0.0188335 -0.139291,-0.0231317 -0.195811,-0.003886 z m 0.09163,0.85447503 c 0.09611,0.013958 0.321784,0.1150657 0.536596,0.2326835 0.214812,0.1176177 0.41873,0.2518065 0.470674,0.3321252 0.05264,0.081463 0.0448,0.202272 0.04525,0.2960918 9.26e-4,0.1469076 0.01656,0.7128305 -0.02737,0.8139728 -0.02311,0.053088 -0.06136,0.092196 -0.105587,0.1248605 -0.04422,0.032667 -0.09448,0.059006 -0.141621,0.087152 -0.07025,0.041878 -0.2197,0.1356622 -0.368438,0.220672 -0.148739,0.085009 -0.296643,0.1612418 -0.36369,0.167878 -0.07231,0.00732 -0.156148,-0.023877 -0.237152,-0.065923 C 11.751722,3.4842193 11.673385,3.4313653 11.612059,3.3949822 11.546609,3.3563092 11.42747,3.293598 11.315687,3.2262654 11.203905,3.1589324 11.099427,3.0868229 11.06373,3.0296159 11.02666,2.9705789 11.01508,2.8103247 11.01261,2.6441384 c -0.0024,-0.1661868 0.0043,-0.3380667 0.0045,-0.4206737 0,-0.1043459 -0.01008,-0.2586259 0.04665,-0.3483265 0.05309,-0.083294 0.188621,-0.1514126 0.273745,-0.2008392 0.10068,-0.058351 0.218098,-0.1338872 0.337432,-0.2016778 0.119334,-0.06779 0.240701,-0.12795 0.349165,-0.1558672 z m 3.112034,1.0896731 v 0.6865971 c 0,0.094277 -0.01195,0.2571941 0.04525,0.3340804 0.05858,0.078717 0.271749,0.1494463 0.366484,0.1874316 l 0.824027,0.3592204 c 0.267386,0.1328346 0.542688,0.2902785 0.817325,0.4659254 0.274636,0.1756468 0.548501,0.3696206 0.812855,0.5754233 0.264353,0.2058021 0.519055,0.4236314 0.755592,0.646932 0.236537,0.2233003 0.454908,0.4520312 0.646093,0.6801727 0.264183,0.3154394 0.503116,0.6278215 0.719279,0.9438616 0.216165,0.3160401 0.409613,0.6358947 0.582408,0.9662082 0.172794,0.3303131 0.324869,0.6710779 0.45894,1.029337 0.134074,0.3582591 0.250006,0.7339297 0.350004,1.1338077 l 0.198605,0.96118 0.06089,0.91509 0.04022,0.412014 -0.0419,0.366204 v 0.411734 c -0.03707,0.482371 -0.112254,0.993608 -0.223465,1.464537 l -0.280169,1.00699 c -0.05561,-0.0254 -0.1157,-0.05744 -0.177655,-0.08101 -0.06195,-0.02357 -0.125571,-0.03883 -0.18827,-0.03129 -0.122652,0.01464 -0.427887,0.206416 -0.549165,0.27598 l -0.778219,0.437993 c -0.09748,0.05538 -0.306531,0.161214 -0.366483,0.249999 -0.05675,0.08467 -0.04525,0.237765 -0.04525,0.337991 v 1.373196 c 0,0.100228 -0.0115,0.253325 0.04525,0.337992 0.05584,0.08283 0.274495,0.202423 0.366483,0.256427 l 0.86956,0.496929 c 0.104346,0.05996 0.353022,0.223423 0.457824,0.237153 0.08489,0.01121 0.248403,-0.06497 0.412014,-0.155868 0.163612,-0.0909 0.327298,-0.196638 0.411736,-0.244693 0.09085,-0.05171 0.31029,-0.170899 0.517322,-0.294696 0.207031,-0.123796 0.401551,-0.252148 0.44274,-0.322628 0.05629,-0.09611 0.04665,-0.247048 0.04665,-0.356427 V 17.18865 c -2.74e-4,-0.07986 0.0046,-0.156916 -0.0062,-0.229054 -0.01076,-0.07214 -0.03697,-0.13931 -0.09944,-0.199721 -0.06567,-0.06338 -0.164385,-0.107022 -0.246649,-0.162571 -0.04113,-0.02777 -0.07833,-0.05837 -0.105028,-0.09609 -0.0267,-0.03772 -0.04285,-0.08238 -0.04274,-0.137991 l 0.276817,-0.959504 c 0.05903,-0.225396 0.136451,-0.604689 0.199722,-0.984086 0.06328,-0.379397 0.112339,-0.758867 0.115085,-0.983806 V 12.15454 C 22.824424,11.9669 22.783836,11.617452 22.732516,11.266544 22.681206,10.915636 22.61921,10.563199 22.576648,10.369611 22.50153,10.02923 22.410282,9.6943437 22.303457,9.3659737 22.196638,9.0376037 22.074122,8.7156934 21.936979,8.4011621 21.799834,8.0866303 21.648016,7.7796299 21.481948,7.4807642 21.315878,7.1818989 21.135601,6.8911808 20.941998,6.6098085 20.748396,6.3284352 20.541347,6.0562127 20.321603,5.7941598 20.101861,5.5321069 19.869442,5.2803114 19.62495,5.0394058 19.380459,4.7985 19.124077,4.5685058 18.856229,4.3505738 18.588381,4.1326422 18.309162,3.9266614 18.019353,3.7335304 17.666271,3.498066 17.153464,3.1984844 16.624929,2.9416251 16.360661,2.8131949 16.092465,2.6953409 15.838331,2.6016782 15.584199,2.5080169 15.3441,2.4385762 15.136096,2.4064258 Z M 20.90262,16.678319 c 0.128831,0.0039 0.266971,0.06153 0.40112,0.134359 0.134151,0.07282 0.264236,0.160991 0.376819,0.225979 0.05515,0.03181 0.115242,0.06322 0.168159,0.102235 0.05292,0.03901 0.09878,0.08547 0.124862,0.147486 0.04439,0.105719 0.02784,0.622931 0.02737,0.769838 0,0.105719 0.01008,0.257813 -0.04665,0.348886 -0.054,0.08604 -0.186789,0.156922 -0.273745,0.207264 -0.132263,0.07643 -0.569895,0.348712 -0.686597,0.365646 -0.0778,0.01121 -0.159389,-0.01432 -0.237991,-0.05195 -0.0786,-0.03765 -0.154109,-0.08756 -0.219554,-0.12486 -0.07048,-0.04004 -0.20006,-0.10723 -0.321512,-0.180169 -0.121449,-0.07294 -0.234871,-0.151447 -0.272627,-0.213689 -0.03707,-0.06132 -0.04865,-0.221367 -0.05111,-0.387153 -0.0024,-0.165787 0.0043,-0.337303 0.0044,-0.421511 0,-0.108923 -0.0097,-0.261057 0.04665,-0.356707 0.04485,-0.07597 0.239089,-0.203882 0.444977,-0.319556 0.205888,-0.115673 0.423605,-0.219088 0.515367,-0.246091 z M 12.02406,5.8287988 c -0.154916,0.024942 -0.451283,0.1770954 -0.749446,0.3463714 -0.298163,0.1692756 -0.598203,0.3557019 -0.7609,0.4486062 L 7.3100597,8.4603823 6.4405001,8.9578717 C 6.3842081,8.9899087 6.2982487,9.0344107 6.2178728,9.0844092 6.1374968,9.1344082 6.0627831,9.1897022 6.0296031,9.24279 5.9728531,9.333863 5.9829541,9.485957 5.9829541,9.5916756 v 6.2698774 c 0,0.08559 -0.00558,0.234188 0.027374,0.310617 0.033409,0.07712 0.1903822,0.185008 0.3600582,0.286035 0.1696761,0.101027 0.3521074,0.195141 0.4363163,0.245254 l 2.7002992,1.556157 1.7846502,1.021516 c 0.08146,0.04622 0.222052,0.1359 0.363411,0.21313 0.141357,0.07724 0.283643,0.142108 0.368996,0.137989 0.08147,-0.0039 0.224038,-0.07365 0.366484,-0.153912 0.142445,-0.08026 0.284639,-0.171096 0.365645,-0.21732 l 1.647498,-0.954755 2.746109,-1.568447 c 0.08833,-0.05057 0.282812,-0.155729 0.465645,-0.266483 0.182834,-0.110753 0.353988,-0.227084 0.396092,-0.299164 0.03181,-0.05469 0.04513,-0.123915 0.05056,-0.195252 0.0055,-0.07133 0.003,-0.144745 0.003,-0.206986 V 9.6374858 c 0,-0.1075491 0.01008,-0.2577581 -0.04665,-0.3511199 C 17.985073,9.2312182 17.921556,9.1816964 17.852563,9.1377615 17.783573,9.0938278 17.708954,9.0555 17.65312,9.0232353 L 16.783593,8.5115001 13.488597,6.6232183 12.573226,6.0941639 C 12.480088,6.0399321 12.396664,5.9832206 12.309537,5.9352241 12.222407,5.8872275 12.13161,5.8480206 12.02406,5.8287988 Z m -0.09163,3.4276789 c 0.124483,-0.012356 0.21013,0.00689 0.290506,0.044133 0.08038,0.037242 0.15546,0.092714 0.25866,0.1533534 l 0.823749,0.4762601 1.235765,0.7145308 c 0.113041,0.06636 0.441192,0.241147 0.502518,0.337712 0.05675,0.0897 0.04665,0.243981 0.04665,0.348327 v 2.700019 c -2.29e-4,0.07437 0.0034,0.16298 -0.0054,0.248046 -0.0086,0.08507 -0.02942,0.166788 -0.07793,0.227656 -0.07598,0.09474 -0.515709,0.333119 -0.648888,0.412293 l -1.464535,0.850844 -0.823749,0.455591 c -0.0746,0.01648 -0.146989,-0.0013 -0.215924,-0.03212 -0.06894,-0.03083 -0.134536,-0.07477 -0.196091,-0.109777 L 10.742441,15.55401 9.506957,14.836407 C 9.39117,14.768217 9.06803,14.603083 9.0030428,14.506516 c -0.05675,-0.08466 -0.045252,-0.238043 -0.045252,-0.338269 v -2.883263 c 2.288e-4,-0.103883 -2.746e-4,-0.177181 0.00978,-0.234917 0.010052,-0.05774 0.030629,-0.100028 0.072906,-0.141621 0.084549,-0.08318 0.2558147,-0.16395 0.6036333,-0.362573 L 11.108691,9.7022905 C 11.349875,9.5640783 11.685306,9.3443476 11.932439,9.2564777 Z M 3.1455039,15.838091 c -0.082378,0.002 -0.2777287,0.09993 -0.4748641,0.210057 -0.1971354,0.110122 -0.3961578,0.232542 -0.4863164,0.283799 -0.094963,0.054 -0.2751066,0.142998 -0.4410641,0.241622 -0.1659574,0.09862 -0.3177823,0.206998 -0.3553101,0.299443 -0.03295,0.08101 -0.027373,0.226403 -0.027373,0.315646 v 1.281573 c 2.288e-4,0.06545 -0.00352,0.13519 0.00361,0.202238 0.00715,0.06705 0.02516,0.131192 0.069554,0.185196 0.076429,0.09336 0.4431189,0.286608 0.5676021,0.357544 l 1.0525214,0.597769 c 0.087413,0.02986 0.15541,0.02279 0.2142471,0.0015 0.058838,-0.02141 0.1086989,-0.05715 0.1594987,-0.08464 0.0508,-0.02749 0.1026233,-0.04681 0.1659228,-0.0352 0.0633,0.01162 0.1380228,0.05413 0.2343594,0.150002 l 0.5988852,0.637408 c 0.3489629,0.333859 0.7430113,0.662086 1.1558744,0.964251 0.4128631,0.30217 0.8446791,0.578415 1.2698417,0.808388 0.3172702,0.171619 0.6438001,0.326463 0.9773816,0.464526 0.333581,0.138062 0.6742169,0.259208 1.0201189,0.363409 0.3459025,0.10421 0.6968922,0.191415 1.0511247,0.261459 0.3542338,0.07004 0.7115468,0.123076 1.0701208,0.158656 h 0.457824 l 0.457545,0.04749 h 0.228791 l 0.457824,-0.04163 0.96118,-0.06313 c 0.261437,-0.03251 0.53338,-0.08076 0.809224,-0.14218 0.275845,-0.06142 0.555569,-0.135993 0.83185,-0.22123 0.552563,-0.170479 1.091831,-0.383484 1.562302,-0.618717 0.345301,-0.172768 0.685185,-0.355885 1.014812,-0.555595 0.329627,-0.199709 0.648967,-0.415956 0.953079,-0.655311 0.129975,-0.102287 0.264307,-0.204295 0.390506,-0.314247 0.126198,-0.109953 0.244421,-0.228075 0.341902,-0.362854 -0.08101,-0.05263 -0.268173,-0.171558 -0.45587,-0.276815 -0.187695,-0.105261 -0.375978,-0.196703 -0.4595,-0.194416 -0.06682,0.0019 -0.132846,0.03524 -0.194973,0.07794 -0.06213,0.0427 -0.12043,0.09478 -0.171231,0.134358 l -0.732128,0.548605 c -0.415552,0.280089 -0.806961,0.505367 -1.213417,0.698612 -0.406456,0.193245 -0.827908,0.354485 -1.30364,0.506426 -0.355714,0.113556 -0.71759,0.205022 -1.083249,0.274583 -0.365658,0.06956 -0.735258,0.117242 -1.106152,0.143578 -0.370896,0.02635 -0.743112,0.03121 -1.114534,0.01509 -0.371421,-0.01611 -0.741986,-0.05309 -1.109226,-0.110896 C 10.12692,22.334565 9.7628382,22.255899 9.4044879,22.157177 9.0461381,22.058449 8.6936449,21.939624 8.3488938,21.800746 8.0041428,21.661869 7.6672286,21.503027 7.3407857,21.324768 7.0143411,21.146495 6.698393,20.948883 6.394967,20.732011 6.1544686,20.560161 5.9387716,20.396776 5.7309957,20.224185 5.5232198,20.051592 5.3232291,19.869821 5.1133936,19.660215 5.0072174,19.55404 4.905902,19.460662 4.8131121,19.360492 4.7203224,19.260323 4.6360798,19.153293 4.5642277,19.019429 c 0.062012,-0.01831 0.1241192,-0.03648 0.1796099,-0.06508 0.055491,-0.0286 0.1044773,-0.0677 0.1399453,-0.127656 0.055834,-0.09474 0.046648,-0.247963 0.046648,-0.356427 v -1.281573 c 0,-0.109379 0.00964,-0.26032 -0.046648,-0.356427 C 4.8508319,16.775976 4.7874109,16.72412 4.7184186,16.678354 4.6494266,16.632584 4.574709,16.592794 4.5184173,16.560755 L 3.7404786,16.116894 C 3.6711437,16.077077 3.5598779,16.006402 3.4471801,15.946222 3.3344828,15.88604 3.2203289,15.836289 3.145502,15.83812 Z m 0,0.850005 c 0.1162447,0.01602 0.2362583,0.07043 0.3530755,0.135754 0.1168163,0.06533 0.2302697,0.141625 0.3332424,0.201119 0.075514,0.04348 0.2270876,0.123354 0.2751415,0.192461 0.053088,0.07734 0.044794,0.201463 0.045252,0.291621 9.169e-4,0.157892 0.017476,0.754795 -0.027374,0.86509 -0.030205,0.07437 -0.2226199,0.217093 -0.427936,0.343578 -0.2053159,0.126484 -0.4234411,0.236558 -0.5055899,0.245254 -0.068877,0.0074 -0.1534929,-0.02334 -0.2357561,-0.06453 -0.082264,-0.04119 -0.1623444,-0.09277 -0.2220689,-0.127096 -0.064758,-0.0373 -0.1840228,-0.100259 -0.2960913,-0.167877 -0.112069,-0.06762 -0.2167178,-0.13985 -0.2519574,-0.19637 -0.037071,-0.05904 -0.048937,-0.21957 -0.051397,-0.385758 -0.00246,-0.166186 0.00426,-0.338066 0.0045,-0.420672 0,-0.105718 -0.00982,-0.257813 0.046927,-0.348886 0.046221,-0.07392 0.2412071,-0.203519 0.4472099,-0.320393 0.2060022,-0.116875 0.4229238,-0.220872 0.5128531,-0.243298 z"/>
</svg>
