<svg xmlns="http://www.w3.org/2000/svg" width="24" height="24">
<style>@media (prefers-color-scheme:dark){path{fill:#fff}}</style>
<path d="M5.42 11.292a1.784 1.784 0 0 0-1.8-1.796H1v1.228h2.62c.338 0 .621.245.621.583v1.78a.64.64 0 0 1-.621.633H1v1.179h2.62a1.8 1.8 0 0 0 1.8-1.811v-.831c4.14.059 5.345 1.136 6.662 2.288 1.269 1.11 2.692 2.302 6.4 2.332v.408c0 1.001.82 1.838 1.821 1.838H23v-1.277h-2.697c-.338 0-.593-.223-.593-.561v-1.78a.59.59 0 0 1 .593-.605H23v-1.179h-2.697c-1.001 0-1.82.783-1.821 1.784v.422c-3.504-.012-4.5-.983-5.774-2.098-1.087-.951-2.365-1.996-5.181-2.377l.071-.063c.542-.497.834-1.098 1.12-1.616s.555-.951.996-1.254c.358-.245.866-.428 1.647-.462v.416c0 1.001.807 1.86 1.808 1.86h7.235c1.001 0 1.81-.859 1.81-1.86V6.69a1.81 1.81 0 0 0-1.81-1.811H13.17c-1.001 0-1.808.81-1.808 1.811v.413c-.943.038-1.658.267-2.185.629-.64.439-.993 1.039-1.291 1.579s-.55 1.024-.931 1.374c-.332.304-.79.539-1.535.626zm7.75-5.185h7.235a.56.56 0 0 1 .582.583v1.78a.56.56 0 0 1-.582.583H13.17c-.338 0-.629-.245-.629-.583V6.69c0-.338.291-.583.629-.583z"/>
</svg>
