<?xml version="1.0" encoding="UTF-8"?>
<!DOCTYPE svg PUBLIC "-//W3C//DTD SVG 1.1//EN" "http://www.w3.org/Graphics/SVG/1.1/DTD/svg11.dtd">
<svg xmlns="http://www.w3.org/2000/svg" xmlns:xlink="http://www.w3.org/1999/xlink" version="1.1" width="24" height="24" viewBox="0 0 24 24">
<style>path{fill:#000}@media (prefers-color-scheme:dark){path{fill:#fff}}</style>
<path d="M 4.821505,11.227488 C 4.8278223,10.135891 3.9494538,9.2679595 2.8578557,9.2679595 H -1.95e-7 V 10.607256 H 2.8578557 c 0.3685641,0 0.6778659,0.26726 0.6778659,0.635842 v 1.941951 c 0,0.368565 -0.3092971,0.690088 -0.6778659,0.690088 H -1.95e-7 v 1.285692 H 2.8578557 c 1.0915981,0 1.9636036,-0.884182 1.9636036,-1.975826 l -2.3e-5,-0.906933 c 4.5163098,0.06466 5.8306117,1.238954 7.2680087,2.495715 1.384342,1.210617 2.93673,2.511737 6.981903,2.543826 l 2.12e-4,0.445126 c 4.57e-4,1.091597 0.894618,2.005168 1.986216,2.005168 H 24 v -1.392856 h -2.942224 c -0.368569,0 -0.647057,-0.243785 -0.647057,-0.612358 v -1.94195 c 0,-0.368564 0.278483,-0.660013 0.647057,-0.660013 H 24 v -1.285692 h -2.942224 c -1.091598,0 -1.985759,0.854107 -1.986216,1.945705 l -2.06e-4,0.460059 c -3.822836,-0.01263 -4.908666,-1.072738 -6.298911,-2.288484 -1.186265,-1.037397 -2.580357,-2.177976 -5.6516251,-2.592899 0.026688,-0.02294 0.051321,-0.04518 0.077079,-0.06879 C 7.789244,10.788355 8.1081264,10.133194 8.4200965,9.567483 8.7320573,9.001817 9.0255883,8.529719 9.5063839,8.1997129 9.8964358,7.9319954 10.451174,7.7324216 11.303587,7.695388 l 8.3e-5,0.454071 c 1.96e-4,1.0915976 0.880566,2.029064 1.972209,2.029064 h 7.892865 c 1.091597,0 1.974223,-0.9374664 1.974223,-2.029064 V 6.2075084 c 0,-1.0915975 -0.882626,-1.9754134 -1.974223,-1.9754134 h -7.892865 c -1.091597,0 -1.972759,0.8837701 -1.972209,1.9754134 l 2.33e-4,0.4504225 C 10.275112,6.6992675 9.4953471,6.948935 8.9198848,7.3438987 8.2220149,7.822909 7.8367102,8.4775197 7.5116937,9.0668065 7.1867138,9.6560934 6.9116494,10.184132 6.4959944,10.56527 6.1342008,10.897038 5.633831,11.153229 4.821473,11.24872 Z m 8.45409,-5.6562017 h 7.892865 c 0.368569,0 0.634926,0.2675894 0.634926,0.6361626 v 1.9419506 c 0,0.3685686 -0.266375,0.6362083 -0.634926,0.6362083 h -7.892865 c -0.368568,0 -0.686379,-0.2676214 -0.686379,-0.6362083 V 6.2074489 c 0,-0.3685641 0.317833,-0.6361626 0.686379,-0.6361626 z"/>
</svg>
