<svg xmlns="http://www.w3.org/2000/svg" width="24" height="24">
<path fill="currentColor" d="M6.49 9.967a6.784 6.784 0 0 0-1.31 4.013c0 3.76 3.06 6.82 6.82 6.82 3.76 0 6.82-3.06 6.82-6.82a6.78 6.78 0 0 0-1.31-4.013l1.568-1.569a8.972 8.972 0 0 1 1.942 5.582c0 4.973-4.046 9.02-9.02 9.02-4.973 0-9.02-4.047-9.02-9.02 0-2.106.728-4.045 1.942-5.582zm9.086.437-1.555 1.555A2.85 2.85 0 0 0 12 11.12a2.85 2.85 0 0 0-2.021.839l-1.555-1.555A5.045 5.045 0 0 1 12 8.92c1.395 0 2.66.568 3.576 1.484m2.799-2.799L16.82 9.16a6.799 6.799 0 0 0-4.82-2c-1.88 0-3.585.765-4.82 2L5.625 7.605A8.993 8.993 0 0 1 12 4.96a8.991 8.991 0 0 1 6.375 2.645m2.8-2.799-1.556 1.555A10.744 10.744 0 0 0 12 3.201a10.746 10.746 0 0 0-7.619 3.16L2.826 4.806A12.941 12.941 0 0 1 12 1c3.578 0 6.823 1.456 9.174 3.806M12 12.484c.825 0 1.496.671 1.496 1.496s-.671 1.496-1.496 1.496a1.498 1.498 0 0 1-1.496-1.496c0-.825.671-1.496 1.496-1.496"/>
</svg>
