<?xml version="1.0" encoding="UTF-8"?>
<!DOCTYPE svg PUBLIC "-//W3C//DTD SVG 1.1//EN" "http://www.w3.org/Graphics/SVG/1.1/DTD/svg11.dtd">
<svg xmlns="http://www.w3.org/2000/svg" xmlns:xlink="http://www.w3.org/1999/xlink" version="1.1"  width="24" height="24" viewBox="0 0 24 24">
<style>path{fill:#000}@media (prefers-color-scheme:dark){path{fill:#fff}}</style>
<path d="m 6.4908196,9.966773 c -0.8229744,1.127029 -1.31062,2.514097 -1.31062,4.013521 0,3.760432 3.0596579,6.81951 6.8200894,6.81951 3.76043,0 6.820088,-3.059078 6.820088,-6.81951 0,-1.499424 -0.487645,-2.886492 -1.3112,-4.013521 l 1.568344,-1.5683417 c 1.21506,1.5370679 1.942474,3.4754887 1.942474,5.5818627 C 21.019995,18.953469 16.974042,23 12.000289,23 7.0265348,23 2.9800028,18.953469 2.9800028,13.980294 c 0,-2.106374 0.7279934,-4.0447948 1.9424744,-5.5818627 z M 15.57626,10.403858 14.021238,11.95888 C 13.503476,11.441119 12.788803,11.120269 12,11.120269 c -0.788805,0 -1.503478,0.32085 -2.0212396,0.838611 L 8.4237385,10.403858 C 9.3399564,9.4876404 10.605402,8.9200716 12,8.9200716 c 1.395176,0 2.660042,0.5675688 3.57626,1.4837864 M 18.375009,7.6049928 16.819987,9.1600146 C 15.585236,7.9252635 13.880214,7.1602045 12.000289,7.1602045 c -1.880505,0 -3.5855278,0.765059 -4.8202791,1.9998101 L 5.624988,7.6049928 c 1.6332074,-1.6332072 3.8884238,-2.6449851 6.375301,-2.6449851 2.486875,0 4.741513,1.0117779 6.37472,2.6449853 M 21.17405,4.8061844 19.619028,6.3612063 C 17.667287,4.4088864 14.972496,3.200197 12.00029,3.200197 c -2.9722061,0 -5.6669984,1.2086894 -7.6193184,3.1610093 L 2.8259496,4.8061844 C 5.1761467,2.4559873 8.4217121,1.0000002 12.00029,1.0000002 c 3.577997,0 6.822984,1.455987 9.17376,3.8061842 m -9.173935,7.6779296 c 0.82471,0 1.495948,0.671236 1.495948,1.495949 0,0.824711 -0.671238,1.495948 -1.495948,1.495948 -0.824712,0 -1.495949,-0.671237 -1.495949,-1.495948 0,-0.824713 0.671237,-1.495949 1.495949,-1.495949" />
</svg>
