<?xml version="1.0" encoding="UTF-8"?>
<!DOCTYPE svg PUBLIC "-//W3C//DTD SVG 1.1//EN" "http://www.w3.org/Graphics/SVG/1.1/DTD/svg11.dtd">
<svg xmlns="http://www.w3.org/2000/svg" xmlns:xlink="http://www.w3.org/1999/xlink" version="1.1" width="24" height="24" viewBox="0 0 24 24">
<style>path{fill:#000}@media (prefers-color-scheme:dark){path{fill:#fff}}</style>
<path d="M 6.2494923,9.8777079 C 5.3904678,11.054106 4.8814611,12.501934 4.8814611,14.067039 c 0,3.925156 3.1936849,7.118236 7.1188409,7.118236 3.925154,0 7.118839,-3.19308 7.118839,-7.118236 0,-1.565105 -0.509006,-3.012933 -1.368636,-4.1893311 l 1.637044,-1.6370423 c 1.268285,1.6043985 2.027563,3.6277304 2.027563,5.8263734 0,5.191023 -4.223184,9.414811 -9.41481,9.414811 -5.1916277,0 -9.4154164,-4.223788 -9.4154164,-9.414811 0,-2.198643 0.7598829,-4.2219749 2.0275637,-5.8263734 z m 9.4834247,0.4562311 -1.623139,1.623139 C 13.569336,11.416637 12.823357,11.081732 12,11.081732 c -0.823358,0 -1.569337,0.334905 -2.1097792,0.875346 L 8.2670819,10.333939 C 9.2234343,9.3775871 10.544313,8.7851562 12,8.7851562 c 1.456291,0 2.776564,0.5924309 3.732917,1.5487828 m 2.921347,-2.9214681 -1.623139,1.6231389 c -1.288839,-1.2888389 -3.068549,-2.087411 -5.030823,-2.087411 -1.96288,0 -3.7425907,0.7985721 -5.0314297,2.087411 L 5.3457333,7.4124709 C 7.0504827,5.7077217 9.4044878,4.6516233 12.000302,4.6516233 c 2.595812,0 4.949213,1.0560984 6.653962,2.7608478 m 2.921652,-2.9214092 -1.623139,1.623139 c -2.037236,-2.0378405 -4.850072,-3.299476 -7.952474,-3.299476 -3.1024026,0 -5.9152392,1.2616355 -7.9530797,3.299476 L 2.4240842,4.4910619 C 4.8772307,2.0379154 8.2649667,0.51814947 12.000303,0.51814947 c 3.73473,0 7.121862,1.51976583 9.575613,3.97291243 M 12.00012,12.50532 c 0.860837,0 1.561478,0.700639 1.561478,1.561478 0,0.860837 -0.700641,1.561478 -1.561478,1.561478 -0.860838,0 -1.561478,-0.700641 -1.561478,-1.561478 0,-0.860839 0.70064,-1.561478 1.561478,-1.561478"/>
</svg>
