<?xml version="1.0" encoding="UTF-8"?>
<!DOCTYPE svg PUBLIC "-//W3C//DTD SVG 1.1//EN" "http://www.w3.org/Graphics/SVG/1.1/DTD/svg11.dtd">
<svg xmlns="http://www.w3.org/2000/svg" xmlns:xlink="http://www.w3.org/1999/xlink" version="1.1"  width="24" height="24" viewBox="0 0 24 24">
<style>path{fill:#000}@media (prefers-color-scheme:dark){path{fill:#fff}}</style>
<path d="m3 3.5v8.5h2v-3.2695c0.51914-0.1507 1.1099-0.34136 1.4258-0.51562 0.67113-0.36797 1.0349-0.84083 1.3574-1.4805 0.1075-0.21417 0.16744-0.37101 0.2793-0.72461 0.28037-0.88831 0.5109-1.4068 0.99609-1.7188 0.38932-0.25011 0.6586-0.36523 1.2891-0.36523 0.48519 0 0.69557 0.10636 1.0762 0.33203 0.78154 0.46284 1.1795 1.2829 1.2754 2.2402 0.01988 0.78739 0 2.1713 0 3.002l-6.3984 4.5h14.699l-6.4297-4.5c0.0054-0.83588 0.02975-2.5731 0-3.3535-0.05084-0.3536-0.14976-0.60348-0.25-0.9082-0.53168-1.6214-1.6735-2.84-3.2715-3.1562-0.33553-0.066118-0.23541-0.074219-0.70898-0.074219-0.50844 0.0014-0.49079 0.016232-0.90625 0.099609-1.6241 0.32771-2.5196 1.4227-3.1094 3.3086-0.1104 0.3536-0.14896 0.43843-0.26953 0.61523-0.097329 0.14086-0.19879 0.25032-0.32227 0.34375-0.20684 0.15684-0.45129 0.30499-0.73242 0.41797v-3.293zm7.6504 11.5c-6.56e-4 1.7071-0.0057 3.4174 0.01367 5.123 0.10299 0.92675 1.0621 1.6565 2.4277 1.8496 0.26418 0.03743 0.85496 0.03743 1.1191 0 1.0858-0.15421 1.9289-0.65127 2.2715-1.334 0.07836-0.1572 0.13386-0.33961 0.15625-0.53125 0.02725-1.7005 0.01172-3.4056 0.01172-5.1074z"/>
</svg>
