<svg xmlns="http://www.w3.org/2000/svg" width="24" height="24">
<path fill="currentColor" d="M3 3.5V12h2V8.73c.52-.15 1.11-.34 1.426-.515.67-.368 1.035-.841 1.357-1.48.108-.215.168-.372.28-.725.28-.889.51-1.407.996-1.719.389-.25.658-.365 1.289-.365.485 0 .695.106 1.076.332.781.463 1.18 1.283 1.275 2.24.02.787 0 2.171 0 3.002L6.301 14H21l-6.43-4.5c.006-.836.03-2.573 0-3.354-.05-.353-.15-.603-.25-.908-.531-1.621-1.673-2.84-3.271-3.156-.336-.066-.236-.074-.71-.074-.508.001-.49.016-.906.1-1.624.327-2.52 1.422-3.109 3.308-.11.354-.149.438-.27.615-.097.141-.198.25-.322.344A3.174 3.174 0 0 1 5 6.793V3.5zM10.65 15c0 1.707-.005 3.417.014 5.123.103.927 1.062 1.657 2.428 1.85a5.59 5.59 0 0 0 1.119 0c1.086-.155 1.929-.652 2.271-1.334.079-.158.134-.34.157-.532.027-1.7.011-3.405.011-5.107z"/>
</svg>
