<?xml version="1.0" encoding="UTF-8"?>
<!DOCTYPE svg PUBLIC "-//W3C//DTD SVG 1.1//EN" "http://www.w3.org/Graphics/SVG/1.1/DTD/svg11.dtd">
<svg xmlns="http://www.w3.org/2000/svg" xmlns:xlink="http://www.w3.org/1999/xlink" version="1.1"  width="24" height="24" viewBox="0 0 24 24">
    <path fill="#000000" d="M 3,3.5 V 12 H 5 V 8.7304688 C 5.5191446,8.5797659 6.1099058,8.3891115 6.4257812,8.2148438 7.0969155,7.8468698 7.46071,7.3740157 7.7832031,6.734375 7.8907005,6.5202028 7.9506444,6.3633648 8.0625,6.0097656 8.3428656,5.121456 8.5734017,4.6029303 9.0585938,4.2910156 9.4479096,4.0409087 9.7171975,3.9257813 10.347656,3.9257812 c 0.485193,0 0.695574,0.1063605 1.076172,0.3320313 0.781537,0.4628412 1.179515,1.2829292 1.275391,2.2402344 0.01988,0.7873898 0,2.1712518 0,3.0019531 L 6.3007812,14 H 21 L 14.570312,9.5 c 0.0054,-0.835877 0.02975,-2.573053 0,-3.3535156 -0.05084,-0.3535982 -0.149765,-0.6034751 -0.25,-0.9082032 C 13.788635,3.6168994 12.646767,2.39826 11.048828,2.0820312 10.713299,2.0159133 10.813414,2.0078125 10.339844,2.0078125 9.8314075,2.0092125 9.8490576,2.0240449 9.4335938,2.1074219 7.8095076,2.4351365 6.9140032,3.5301532 6.3242188,5.4160156 6.2138159,5.7696157 6.175259,5.8544504 6.0546875,6.03125 5.9573585,6.1721148 5.8558988,6.2815684 5.7324219,6.375 5.5255835,6.5318378 5.2811285,6.6799912 5,6.7929688 V 3.5 Z M 10.650391,15 c -6.56e-4,1.707062 -0.0057,3.417393 0.01367,5.123047 0.102987,0.926752 1.062063,1.656474 2.427735,1.849609 0.264179,0.03743 0.854959,0.03743 1.119141,0 1.085818,-0.154207 1.928946,-0.651271 2.271484,-1.333984 0.07836,-0.157204 0.133862,-0.339612 0.15625,-0.53125 0.02725,-1.700542 0.01172,-3.405638 0.01172,-5.107422 z" />
</svg>