<?xml version="1.0" encoding="UTF-8"?>
<!DOCTYPE svg PUBLIC "-//W3C//DTD SVG 1.1//EN" "http://www.w3.org/Graphics/SVG/1.1/DTD/svg11.dtd">
<svg xmlns="http://www.w3.org/2000/svg" xmlns:xlink="http://www.w3.org/1999/xlink" version="1.1" width="24" height="24" viewBox="0 0 24 24">
<style>path{fill:#000}@media (prefers-color-scheme:dark){path{fill:#fff}}</style>
<path d="m 5.5251803,18.732074 c 0,0.902087 0.1949672,2.949244 -0.3535603,3.621444 -0.771139,0.944287 -2.320693,0.886088 -2.991439,-0.142587 -0.3244604,-0.497604 -0.290996,-1.022852 -0.2924506,-1.587384 0,0 0,-10.039366 0,-10.039366 C 1.8891108,9.9381698 1.8557197,9.3998271 2.2733,8.8527542 3.0793591,7.7964388 4.7351262,7.9448466 5.3665872,8.9895224 5.7594319,9.6384436 5.621209,10.056023 5.5717393,10.729679 c -0.046557,0.632916 0.1964224,1.729971 0.4233993,2.327968 1.2265526,3.222785 4.8538174,4.977491 8.1144284,3.826602 1.203268,-0.424854 2.048616,-1.12761 2.883775,-2.080621 0.651831,-0.744955 1.08978,-1.644133 1.268742,-2.618969 C 18.94156,8.4788246 16.012685,4.8079052 12.218093,4.7642559 11.003185,4.7511613 9.9395938,4.9403085 8.8716382,5.5586751 8.1397834,5.9835338 7.2726155,6.8652514 6.5436662,7.0092948 5.1701649,7.2813757 4.1487694,6.0795625 4.4106654,4.7642559 4.5823531,3.9043626 5.4262413,3.2699912 6.1071722,2.791303 7.8458777,1.5705747 10.384818,0.84890484 12.509089,0.99440283 18.128226,1.3785173 22.177435,5.6678032 22.111962,11.311671 c -0.06111,5.163728 -4.421685,9.594142 -9.602873,9.602872 -3.0627331,0.0046 -4.4420543,-0.398664 -6.9839087,-2.182469 z"/>
</svg>
