<?xml version="1.0" encoding="UTF-8"?>
<svg version="1.1" viewBox="0 0 24 24" xmlns="http://www.w3.org/2000/svg">
<style>path{fill:#000}@media (prefers-color-scheme:dark){path{fill:#fff}}</style>
<path d="m13.377 2v15.195h1.1621l0.3418-1.377h0.11719c0.39066 0.53387 0.87242 0.93099 1.4453 1.1914 0.57942 0.2539 1.2174 0.38086 1.9141 0.38086 1.3932 0 2.4805-0.48504 3.2617-1.4551 0.78775-0.97657 1.1816-2.3437 1.1816-4.1016 0-1.7578-0.39064-3.1152-1.1719-4.0723-0.77475-0.96351-1.8652-1.4453-3.2715-1.4453-1.4844 0-2.6042 0.53386-3.3594 1.6016h-0.078125c0.052067-0.65755 0.078125-1.3997 0.078125-2.2266v-3.6914h-1.6211zm-7.7441 4.2969c-1.3932 0-2.4805 0.49152-3.2617 1.4746-0.78127 0.98309-1.1719 2.3503-1.1719 4.1016-1e-7 1.7383 0.38736 3.0924 1.1621 4.0625 0.77475 0.97003 1.8522 1.4551 3.2324 1.4551 1.5039 0 2.6302-0.54363 3.3789-1.6309h0.12695c-0.07162 0.45569-0.10742 1.0091-0.10742 1.6602v4.5801h1.6211v-15.508h-1.2793l-0.23438 1.4648h-0.087891c-0.78775-1.1068-1.9141-1.6602-3.3789-1.6602zm0.18555 1.3574c1.1003 0 1.9043 0.32878 2.4121 0.98633 0.50781 0.65755 0.76172 1.735 0.76172 3.2324v0.36133c-0.03254 1.3737-0.29621 2.3503-0.79102 2.9297-0.49476 0.57947-1.2825 0.86914-2.3633 0.86914-0.97656 0-1.7155-0.35159-2.2168-1.0547-0.49481-0.70963-0.74219-1.7383-0.74219-3.0859 1e-7 -1.3477 0.25067-2.3894 0.75195-3.125 0.50777-0.74221 1.237-1.1133 2.1875-1.1133zm12.305 0.019531c1.0222 0 1.7773 0.34182 2.2656 1.0254 0.48828 0.68361 0.73242 1.722 0.73242 3.1152 0 1.3607-0.24414 2.4056-0.73242 3.1348-0.48828 0.72268-1.2305 1.084-2.2266 1.084-1.1068 0-1.9108-0.3223-2.4121-0.9668-0.50129-0.65103-0.75195-1.7285-0.75195-3.2324 0-1.5039 0.24414-2.5716 0.73242-3.2031 0.48829-0.63802 1.2858-0.95703 2.3926-0.95703z"/>
</svg>
