<svg width="24" height="24" xmlns="http://www.w3.org/2000/svg">
<style>@media (prefers-color-scheme:dark){path{fill:#fff}}</style>
<path d="M13.377 2v15.195h1.162l.342-1.377h.117c.39.534.873.931 1.445 1.191.58.254 1.218.381 1.914.381 1.394 0 2.481-.485 3.262-1.455.788-.976 1.182-2.344 1.182-4.101 0-1.758-.39-3.116-1.172-4.073-.775-.963-1.865-1.445-3.272-1.445-1.484 0-2.604.534-3.359 1.602h-.078c.052-.658.078-1.4.078-2.227V2h-1.621zM5.633 6.297c-1.393 0-2.48.491-3.262 1.475-.781.983-1.172 2.35-1.172 4.101 0 1.738.388 3.093 1.162 4.063.775.97 1.853 1.455 3.233 1.455 1.504 0 2.63-.544 3.379-1.631H9.1c-.072.455-.108 1.009-.108 1.66V22h1.621V6.492H9.334L9.1 7.957h-.088c-.788-1.107-1.914-1.66-3.38-1.66zm.185 1.357c1.1 0 1.905.33 2.413.987.507.657.761 1.735.761 3.232v.361c-.032 1.374-.296 2.35-.79 2.93-.496.58-1.283.87-2.364.87-.977 0-1.716-.352-2.217-1.055-.495-.71-.742-1.739-.742-3.086 0-1.348.25-2.39.752-3.125.508-.743 1.237-1.114 2.187-1.114zm12.305.02c1.023 0 1.778.342 2.266 1.025.488.684.732 1.722.732 3.115 0 1.361-.244 2.406-.732 3.135-.488.723-1.23 1.084-2.227 1.084-1.106 0-1.91-.322-2.412-.967-.5-.65-.752-1.728-.752-3.232 0-1.504.245-2.572.733-3.203.488-.638 1.286-.957 2.392-.957z"/>
</svg>
