<svg viewBox="0 0 512 512" xmlns="http://www.w3.org/2000/svg">
<style>path{fill:#000}@media (prefers-color-scheme:dark){path{fill:#fff}}</style>
<path d="m6.4629 2c-1.7431 0.011246-3.4293 1.2464-3.4629 3.8848v12.109c-0.015594 1.2275 0.96297 1.8512 2.1953 1.7168v-14.457c0.0093014-0.72992 1.0035-1.4038 1.668-1.0098l12.205 7.0273c0.91644 0.6227 1.3712 1.2389 1.5078 2.3184 0.83778-1.529 0.40144-3.4411-1.0176-4.457l-10.832-6.3984s-1.1109-0.74406-2.2637-0.73438zm0.73242 4.7266-2e-7 10.643 9.2168-5.3203zm11.812 6.1328-12.693 7.2988c-0.78955 0.47486-1.7484 0.57576-2.6191 0.27344 0.75276 1.2317 2.7406 2.028 4.2871 1.2754l10.686-6.0918c0.92642-0.59934 1.0945-1.6741 0.33984-2.7559z"/>
</svg>
