<?xml version="1.0" encoding="UTF-8"?>
<!DOCTYPE svg PUBLIC "-//W3C//DTD SVG 1.1//EN" "http://www.w3.org/Graphics/SVG/1.1/DTD/svg11.dtd">
<svg xmlns="http://www.w3.org/2000/svg" xmlns:xlink="http://www.w3.org/1999/xlink" version="1.1"  width="24" height="24" viewBox="0 0 24 24">
<path d="m12 2c-5.514 0-10 4.486-10 10 0 0.005258-8.2e-6 0.010368 0 0.015625l1.5195-0.4082c0.019141-0.42064 0.078608-0.83005 0.15625-1.2324h5.8613c0.184 1.1955 1.2191 2.125 2.4629 2.125s2.2789-0.92949 2.4629-2.125h5.8613c0.077641 0.40237 0.13711 0.81178 0.15625 1.2324l1.5195 0.4082c8e-6 -0.005257 0-0.010367 0-0.015625 0-5.514-4.486-10-10-10zm0 1.5c3.8763 0 7.1201 2.5845 8.1445 6.125h-5.6816c-0.184-1.1955-1.2191-2.125-2.4629-2.125s-2.2789 0.92949-2.4629 2.125h-5.6816c1.0245-3.5405 4.2682-6.125 8.1445-6.125zm0 5.5c0.56117 0 1 0.43883 1 1 0 0.56117-0.43883 1-1 1s-1-0.43883-1-1c0-0.56117 0.43883-1 1-1zm-8.416 4.1445l-1.4551 0.38867c0.74132 4.7872 4.8795 8.4668 9.8711 8.4668s9.1298-3.6796 9.8711-8.4668l-1.4551-0.38867c-0.55818 4.1584-4.1019 7.3555-8.416 7.3555-4.3141 0-7.8578-3.1971-8.416-7.3555z"/>
</svg>