<?xml version="1.0" encoding="UTF-8"?>
<!DOCTYPE svg PUBLIC "-//W3C//DTD SVG 1.1//EN" "http://www.w3.org/Graphics/SVG/1.1/DTD/svg11.dtd">
<svg xmlns="http://www.w3.org/2000/svg" xmlns:xlink="http://www.w3.org/1999/xlink" version="1.1"  width="24" height="24" viewBox="0 0 24 24">
<path d="m2 2v5h1.8008l2.1992 5h12l2.1992-5h1.8008v-5h-20zm4 5h1.3633l0.80273 3h-0.76562l-1.4004-3zm3.4336 0h1.5664v3h-0.76367l-0.80273-3zm3.5664 0h1.5664l-0.80273 3h-0.76367v-3zm3.6367 0h1.3633l-1.4004 3h-0.76562l0.80274-3zm-6.7246 6.1133l-1.4258 1.4023s0.25046 0.2585 0.47266 0.62695 0.31428 0.75967 0.27344 0.91211c-0.074008 0.2762-0.2399 0.41836-0.65625 0.74414s-1.0963 0.83254-1.3438 1.7559c-0.27008 1.008 0.14404 1.849 0.49414 2.4395 0.3501 0.59043 0.74414 1.0059 0.74414 1.0059l1.4551-1.3711s-0.25355-0.2749-0.47852-0.6543c-0.22497-0.3794-0.3134-0.78964-0.2832-0.90234 0.061899-0.23101 0.21939-0.36655 0.64453-0.69922s1.1048-0.86513 1.3555-1.8008c0.27148-1.0132-0.1363-1.8708-0.49219-2.4609s-0.75977-0.99805-0.75977-0.99805zm5.5996 0l-1.4258 1.4023s0.25241 0.2585 0.47461 0.62695 0.31428 0.75967 0.27344 0.91211c-0.07401 0.2762-0.2399 0.41836-0.65625 0.74414-0.41635 0.32578-1.0963 0.83254-1.3438 1.7559-0.27008 1.008 0.14209 1.849 0.49219 2.4395 0.3501 0.59043 0.74609 1.0059 0.74609 1.0059l1.4551-1.3711s-0.2555-0.2749-0.48047-0.6543c-0.22497-0.3794-0.31145-0.78964-0.28125-0.90234 0.0619-0.23101 0.21938-0.36655 0.64453-0.69922s1.1048-0.86513 1.3555-1.8008c0.27148-1.0132-0.13825-1.8708-0.49414-2.4609-0.35589-0.59014-0.75976-0.99805-0.75976-0.99805z"/>
</svg>