<?xml version="1.0" encoding="UTF-8"?>
<!DOCTYPE svg PUBLIC "-//W3C//DTD SVG 1.1//EN" "http://www.w3.org/Graphics/SVG/1.1/DTD/svg11.dtd">
<svg xmlns="http://www.w3.org/2000/svg" xmlns:xlink="http://www.w3.org/1999/xlink" version="1.1"  width="24" height="24" viewBox="0 0 24 24">
    <path fill="#000000" d="M 2 2 L 2 7 L 3.8007812 7 L 6 12 L 18 12 L 20.199219 7 L 22 7 L 22 2 L 2 2 z M 6 7 L 7.3632812 7 L 8.1660156 10 L 7.4003906 10 L 6 7 z M 9.4335938 7 L 11 7 L 11 10 L 10.236328 10 L 9.4335938 7 z M 13 7 L 14.566406 7 L 13.763672 10 L 13 10 L 13 7 z M 16.636719 7 L 18 7 L 16.599609 10 L 15.833984 10 L 16.636719 7 z M 9.9121094 13.113281 L 8.4863281 14.515625 C 8.4863281 14.515625 8.7367896 14.774126 8.9589844 15.142578 C 9.1811792 15.51103 9.2732681 15.902246 9.2324219 16.054688 C 9.1584139 16.33089 8.9925215 16.473043 8.5761719 16.798828 C 8.1598223 17.124613 7.4798249 17.631364 7.2324219 18.554688 C 6.9623388 19.562649 7.3764611 20.403709 7.7265625 20.994141 C 8.0766639 21.584572 8.4707031 22 8.4707031 22 L 9.9257812 20.628906 C 9.9257812 20.628906 9.672235 20.354011 9.4472656 19.974609 C 9.2222963 19.595208 9.1338626 19.184973 9.1640625 19.072266 C 9.2259615 18.841255 9.3834476 18.705715 9.8085938 18.373047 C 10.23374 18.040379 10.913355 17.507919 11.164062 16.572266 C 11.435541 15.559092 11.027762 14.701473 10.671875 14.111328 C 10.315988 13.521183 9.9121094 13.113281 9.9121094 13.113281 z M 15.511719 13.113281 L 14.085938 14.515625 C 14.085938 14.515625 14.338352 14.774126 14.560547 15.142578 C 14.782742 15.51103 14.874831 15.902246 14.833984 16.054688 C 14.759974 16.33089 14.594084 16.473043 14.177734 16.798828 C 13.761385 17.124613 13.081387 17.631364 12.833984 18.554688 C 12.563901 19.562649 12.97607 20.403709 13.326172 20.994141 C 13.676273 21.584572 14.072266 22 14.072266 22 L 15.527344 20.628906 C 15.527344 20.628906 15.271844 20.354011 15.046875 19.974609 C 14.821906 19.595208 14.735425 19.184973 14.765625 19.072266 C 14.827525 18.841255 14.98501 18.705715 15.410156 18.373047 C 15.835302 18.040379 16.514917 17.507919 16.765625 16.572266 C 17.037104 15.559092 16.627371 14.701473 16.271484 14.111328 C 15.915598 13.521183 15.511719 13.113281 15.511719 13.113281 z " />
</svg>