<svg width="24" height="24" viewBox="0 0 24 24" xmlns="http://www.w3.org/2000/svg">
<style>path{fill:#000}@media (prefers-color-scheme:dark){path{fill:#fff}}</style>
<path d="m12 1a11 11 0 0 0-6.7148 2.3164l1.3242 1.3242a7.6172 7.6172 0 0 0 10.781 0l1.3379-1.3379a11 11 0 0 0-6.7285-2.3027zm7.6992 3.1504-2.6602 2.6562-0.1875-0.1875-1.8184 1.8184 0.5293 0.5293 1.8184-1.8184-0.1875-0.1875 2.6562-2.6602a11.001 11.001 0 0 0-0.15039-0.15039zm-15.395 0.0039063a11.001 11.001 0 0 0-0.15039 0.15039l2.6523 2.6523-0.1875 0.19141 1.8184 1.8184 0.5293-0.5293-1.8184-1.8184-0.1875 0.1875-2.6562-2.6523zm16.393 1.1172-1.3379 1.3379a7.6172 7.6172 0 0 0 0 10.781l1.3242 1.3242a11 11 0 0 0 2.3164-6.7148 11 11 0 0 0-2.3027-6.7285zm-17.381 0.013672a11 11 0 0 0-2.3164 6.7148 11 11 0 0 0 2.3164 6.7148l1.3242-1.3242a7.6172 7.6172 0 0 0 0-10.781l-1.3242-1.3242zm8.4492 3.5039a3.2205 3.2198 0 0 0-2.0488 0.9375 3.2205 3.2198 0 0 0 0 4.5469 3.2205 3.2198 0 0 0 4.5566 0 3.2205 3.2198 0 0 0 0-4.5469 3.2205 3.2198 0 0 0-2.5078-0.9375zm-3.3281 6.2422-1.8184 1.8184 0.1875 0.1875-2.6562 2.6582a11.001 11.001 0 0 0 0.1543 0.1543l2.6523-2.6523 0.19141 0.1875 1.8184-1.8184-0.5293-0.5293v-0.005859zm7.125 0-0.5293 0.5293 1.8184 1.8184 0.1875-0.1875 2.6582 2.6562a11.001 11.001 0 0 0 0.15234-0.15234l-2.6562-2.6582 0.1875-0.1875-1.8184-1.8184zm-4.2266 2.1211a7.6172 7.6172 0 0 0-4.7266 2.207l-1.3242 1.3242a11 11 0 0 0 6.7148 2.3164 11 11 0 0 0 6.7148-2.3164l-1.3242-1.3242a7.6172 7.6172 0 0 0-6.0547-2.207z"/>
</svg>
