<svg width="24" height="24" xmlns="http://www.w3.org/2000/svg">
<style>@media (prefers-color-scheme:dark){path{fill:#fff}}</style>
<path d="M12 1a11 11 0 0 0-6.7 2.3l1.3 1.3c3 3 7.8 3 10.8 0l1.3-1.3A11 11 0 0 0 12 1zm7.6 3L17 6.8l-.2-.2-1.9 1.8.8.8 1.8-1.9-.2-.2L20 4.4a11 11 0 0 0-.4-.3zM4.4 4l-.3.4L6.7 7l-.2.2 1.8 1.9.8-.8-1.9-1.8-.2.2L4.4 4zm16.3 1.3-1.3 1.3c-3 3-3 7.8 0 10.8l1.3 1.3a11 11 0 0 0 0-13.4zm-17.4 0a11 11 0 0 0 0 13.4l1.3-1.3c3-3 3-7.8 0-10.8L3.3 5.3zM12 8.8A3.2 3.2 0 0 0 8.8 12a3.2 3.2 0 0 0 3.2 3.2 3.2 3.2 0 0 0 3.2-3.2A3.2 3.2 0 0 0 12 8.8zm3.6 6.1-.7.8 1.9 1.8.2-.2 2.6 2.6.3-.3-2.6-2.6.2-.2-1.9-1.9zm-7.3 0-1.8 1.9.2.2L4 19.6l.3.3L7 17.3l.2.2 1.9-1.8-.8-.8zm3.9 2.2a7.6 7.6 0 0 0-5.6 2.3l-1.3 1.3a11 11 0 0 0 13.4 0l-1.3-1.3a7.6 7.6 0 0 0-5.2-2.3z"/>
</svg>
