<svg xmlns="http://www.w3.org/2000/svg" width="24" height="24">
<path fill="currentColor" d="m19.705 2c-1.2674 0-2.2949 1.024-2.2949 2.2871 0 0.622 0.24997 1.1853 0.6543 1.5977l-5.0859 7.1621c-0.2829-0.12414-0.59488-0.19531-0.92383-0.19531-1.2674 0-2.2949 1.024-2.2949 2.2871 0 0.22486 0.032991 0.44319 0.09375 0.64844l-3.8652 2.3828c-0.41956-0.45726-1.0225-0.74414-1.6934-0.74414-1.2674 0-2.2949 1.0242-2.2949 2.2871 0 1.2629 1.0275 2.2871 2.2949 2.2871 1.2675 0 2.2949-1.0242 2.2949-2.2871 0-0.21844-0.030526-0.42895-0.087891-0.62891l3.8711-2.3887c0.41913 0.44963 1.0173 0.73047 1.6816 0.73047 1.2675 0 2.2949-1.0242 2.2949-2.2871 0-0.55729-0.20086-1.0681-0.5332-1.4648l5.1328-7.2266c0.23677 0.08224 0.49124 0.12695 0.75586 0.12695 1.2675 0 2.2949-1.0241 2.2949-2.2871-8.7e-5 -1.2631-1.0275-2.2871-2.2949-2.2871zm-15.41 5.4473c-1.2674 0-2.2949 1.0241-2.2949 2.2871 0 1.263 1.0275 2.2871 2.2949 2.2871 0.39032 0 0.75844-0.098281 1.0801-0.26953l3.2188 3.6367 0.18555-0.11523c-0.001974-0.046296-0.019531-0.088056-0.019531-0.13477 0-0.3385 0.051465-0.66649 0.14844-0.97461l-2.7461-3.1016c0.26906-0.37468 0.42773-0.83243 0.42773-1.3281 0-1.2631-1.0274-2.2871-2.2949-2.2871zm15.41 9.9785c-0.91242 0-1.7004 0.53031-2.0703 1.2988l-3.2871-0.47461c-0.002145-0.23215-0.038844-0.4553-0.10547-0.66602-0.58412 0.52121-1.3505 0.8418-2.1875 0.8418-0.63393 0-1.1953-0.22964-1.7012-0.54297l-0.5918 0.36524c-8.2e-5 0.007962-0.0019532 0.015456-0.0019532 0.023437 0 1.2631 1.0274 2.2871 2.2949 2.2871 0.9072 0 1.6901-0.52561 2.0625-1.2871l3.293 0.47656c0.01915 1.2465 1.0393 2.252 2.2949 2.252 1.2674 0 2.2949-1.0242 2.2949-2.2871 0-1.2629-1.0275-2.2871-2.2949-2.2871z"/>
</svg>
