<?xml version="1.0" encoding="UTF-8"?>
<!DOCTYPE svg PUBLIC "-//W3C//DTD SVG 1.1//EN" "http://www.w3.org/Graphics/SVG/1.1/DTD/svg11.dtd">
<svg xmlns="http://www.w3.org/2000/svg" xmlns:xlink="http://www.w3.org/1999/xlink" version="1.1"  width="24" height="24" viewBox="0 0 24 24">
<path d="m12 2c-5.511 0-10 4.489-10 10 0 5.511 4.489 10 10 10 5.511 0 10-4.489 10-10 0-5.511-4.489-10-10-10zm0 2c4.4301 0 8 3.5699 8 8 0 4.4301-3.5699 8-8 8-4.4301 0-8-3.5699-8-8 0-4.4301 3.5699-8 8-8zm3.5 1.9375l-3.6113 3.0664a3 3 30 0 0 -2.4863 1.4961 3 3 30 0 0 1.0977 4.0977 3 3 30 0 0 4.0977 -1.0977 3 3 30 0 0 0.050782 -2.9004l0.85156-4.6621z"/>
</svg>