<svg xmlns="http://www.w3.org/2000/svg" width="24" height="24">
<path fill="currentColor" d="M10.764 1a.793.793 0 0 0-.713.455H6.728c-.721 0-1.373.112-1.867.308a1.925 1.925 0 0 0-.616.365c-.16.15-.275.347-.275.57v1.046c0 .222.115.42.275.57.16.15.37.267.616.365.494.195 1.146.307 1.867.307h3.248v2.51H4.96c-.74-.028-1.426.573-1.494 1.339-.442 3.632-1.1 7.284-1.437 10.939l-.001.01v1.549c.019.897.62 1.54 1.316 1.663l.022.004H20.71c.3-.007.61-.112.855-.322.244-.21.415-.54.405-.935v-1.981L20.404 9.127v-.006c-.148-.753-.77-1.53-1.674-1.623l-.013-.001h-4.693v-2.51h3.248c.72 0 1.373-.113 1.867-.308a1.92 1.92 0 0 0 .615-.366c.16-.15.276-.347.276-.57V2.699c0-.222-.116-.42-.276-.57a1.92 1.92 0 0 0-.615-.365c-.494-.196-1.146-.308-1.867-.308h-3.323A.793.793 0 0 0 13.235 1zm.305.498h1.861c.326 0 .594.33.594.73v11.029c0 .4-.268.73-.594.73H11.07c-.326 0-.594-.33-.594-.73V2.229c0-.4.268-.73.594-.73zM6.292 8.944h3.684v.689l-.996 5.803H6.854l4.862 3.122 5.43-3.122h-2.208l-.915-5.867v-.625h3.226c.663-.02 1.29.398 1.475.983l.006.02 1.213 8.1v.014c.016.404-.055.747-.234 1.005a.937.937 0 0 1-.807.398l-13.65.05H5.24l-.014-.001c-.33-.036-.635-.166-.85-.404-.217-.237-.332-.572-.324-.962v-.011l.954-8.03.005-.018c.082-.3.22-.578.434-.791.213-.213.509-.354.848-.353z"/>
</svg>
