<?xml version="1.0" encoding="UTF-8"?>
<svg version="1.1" viewBox="0 0 24 24" xmlns="http://www.w3.org/2000/svg">
<style>path{fill:#000}@media (prefers-color-scheme:dark){path{fill:#fff}}</style>
<path d="m10.764 0.99998c-0.31332 0-0.58637 0.18749-0.71305 0.45518h-3.323c-0.72142 0-1.3726 0.11212-1.8666 0.30769-0.24703 0.09778-0.4565 0.21523-0.61635 0.36532-0.15984 0.15009-0.27545 0.34718-0.27545 0.56946v1.0461c0 0.22228 0.11561 0.41937 0.27545 0.56946 0.15984 0.15009 0.36932 0.26753 0.61635 0.36532 0.49406 0.19556 1.1452 0.30769 1.8666 0.30769h3.2478v2.5103h-5.0148c-0.7408-0.028201-1.4263 0.57295-1.4935 1.3382-0.44291 3.6322-1.1013 7.2845-1.4378 10.939l-9.75e-4 0.01074v1.5482c0.01917 0.89692 0.62052 1.5411 1.3167 1.6635l0.02149 0.0039h17.344c0.30027-0.0075 0.60984-0.1119 0.85468-0.32234 0.24484-0.21044 0.41565-0.53974 0.40536-0.93478v-1.9809l-1.5668-10.635-1e-3 -0.00586c-0.14689-0.75319-0.7682-1.53-1.6733-1.6235l-0.0127-1e-3h-4.6934v-2.5103h3.2478c0.72142 0 1.3735-0.11212 1.8676-0.30769 0.24703-0.097782 0.45553-0.21523 0.61537-0.36532 0.15984-0.15009 0.27545-0.34718 0.27545-0.56946v-1.0461c0-0.22228-0.11561-0.41937-0.27545-0.56946-0.15984-0.15009-0.36834-0.26753-0.61537-0.36532-0.49406-0.19556-1.1462-0.30769-1.8676-0.30769h-3.323c-0.12668-0.26769-0.39973-0.45518-0.71305-0.45518zm0.30476 0.49816h1.8617c0.3256 0 0.59388 0.33028 0.59388 0.73063v11.028c0 0.40035-0.26828 0.72965-0.59388 0.72965h-1.8617c-0.3256 0-0.59388-0.3293-0.59388-0.72965v-11.028c0-0.40035 0.26828-0.73063 0.59388-0.73063zm-4.7765 7.446h3.6834v0.68863l-0.99534 5.803h-2.1264l4.8624 3.1218 5.4289-3.1218h-2.2075l-0.91427-5.8665v-0.62514h3.2253c0.66369-0.019964 1.2894 0.3981 1.4749 0.98264l0.0059 0.01953 1.2132 8.1014 1e-3 0.01367c0.01563 0.40344-0.05558 0.74653-0.23447 1.0051-0.17889 0.25858-0.48114 0.40827-0.80682 0.39755l-13.65 0.05079h-0.01367l-0.01367-2e-3c-0.32998-0.03572-0.63478-0.16609-0.8508-0.40336-0.21602-0.23727-0.33136-0.57221-0.32331-0.96213v-0.01172l0.95431-8.0291 0.0049-0.01856c0.08183-0.29932 0.22059-0.57799 0.43369-0.79119 0.2131-0.2132 0.50907-0.35357 0.84784-0.35262z"/>
</svg>
