<svg xmlns="http://www.w3.org/2000/svg" width="24" height="24">
<style>@media (prefers-color-scheme:dark){path{fill:#fff}}</style>
<path d="M12 2a.748.748 0 0 0-.75.75v7L12 9l.75.75v-7A.748.748 0 0 0 12 2zM9 5a.748.748 0 0 0-.75.75v6.998l1.5-1.5V5.75A.748.748 0 0 0 9 5zm6 0a.748.748 0 0 0-.75.75v5.5l1.5 1.5v-7A.748.748 0 0 0 15 5zM6 8a.748.748 0 0 0-.75.75v7l1.5-1.5v-5.5A.748.748 0 0 0 6 8zm12 0a.748.748 0 0 0-.75.75v5.756l1.5 1.5V8.75A.748.748 0 0 0 18 8zM3 11a.748.748 0 0 0-.75.75v7l1.5-1.5v-5.5A.748.748 0 0 0 3 11zm9 0-2.121 2.121L1 22h4.244L12 15.242 18.756 22H23l-8.879-8.879L12 11zm9 0a.748.748 0 0 0-.75.75v5.5l1.5 1.5v-7A.748.748 0 0 0 21 11z"/>
</svg>
