<?xml version="1.0" encoding="UTF-8"?>
<!DOCTYPE svg PUBLIC "-//W3C//DTD SVG 1.1//EN" "http://www.w3.org/Graphics/SVG/1.1/DTD/svg11.dtd">
<svg xmlns="http://www.w3.org/2000/svg" xmlns:xlink="http://www.w3.org/1999/xlink" version="1.1" width="24" height="24" viewBox="0 0 24 24">
<style>path{fill:#000}@media (prefers-color-scheme:dark){path{fill:#fff}}</style>
<path d="m12 2c-0.4155 0-0.75 0.3345-0.75 0.75v7l0.75-0.75 0.75 0.75v-7c0-0.4155-0.3345-0.75-0.75-0.75zm-3 3c-0.4155 0-0.75 0.3345-0.75 0.75v6.998l1.5-1.5v-5.498c0-0.4155-0.3345-0.75-0.75-0.75zm6 0c-0.4155 0-0.75 0.3345-0.75 0.75v5.5l1.5 1.5v-7c0-0.4155-0.3345-0.75-0.75-0.75zm-9 3c-0.4155 0-0.75 0.3345-0.75 0.75v7l1.5-1.5v-5.5c0-0.4155-0.3345-0.75-0.75-0.75zm12 0c-0.4155 0-0.75 0.3345-0.75 0.75v5.7559l1.5 1.5v-7.2559c0-0.4155-0.3345-0.75-0.75-0.75zm-15 3c-0.4155 0-0.75 0.3345-0.75 0.75v7l1.5-1.5v-5.5c0-0.4155-0.3345-0.75-0.75-0.75zm9 0l-2.1211 2.1211-8.8789 8.8789h4.2441l6.7559-6.7578 6.7559 6.7578h4.2441l-8.8789-8.8789-2.1211-2.1211zm9 0c-0.4155 0-0.75 0.3345-0.75 0.75v5.5l1.5 1.5v-7c0-0.4155-0.3345-0.75-0.75-0.75z"/>
</svg>
